<svg xmlns="http://www.w3.org/2000/svg" width="140mm" height="20mm" viewBox="0 0 140 29">
  <path
     id="path928"
     style="fill:#FFFFFF;fill-opacity:1;fill-rule:nonzero;stroke:none;stroke-width:0.219818"
     d="M 18.379757,7.4016583 V 21.21065 l -7.011328,-5.14441 z m -13.1647051,7.1174997 2.664419,1.956386 -0.00286,0.0037 1.9834214,1.455198 0.9260957,0.673304 10.231008,7.506801 V 0.18128513 L 9.3577498,14.591043 6.7219072,12.656862 Z" />
  <path
     id="path932"
     style="fill:#FFFFFF;fill-opacity:1;fill-rule:nonzero;stroke:none;stroke-width:0.219818"
     d="M 3.2535902,26.114558 6.7355139,21.812052 4.7243952,20.335532 0.04863769,26.114558 Z" />
  <path
     id="path936"
     style="fill:#FFFFFF;fill-opacity:1;fill-rule:nonzero;stroke:none;stroke-width:0.352778"
     d="M 36.793408,5.7865605 28.837916,22.624644 H 30.7154 l 2.622902,-5.538964 0.769409,-1.624895 2.885016,-6.095294 2.871259,6.095294 0.72778,1.624895 1.773061,3.707694 h -8.606719 l -0.692503,1.83127 h 10.174817 0.470252 1.3462 L 37.205452,5.7865605 Z" />
  <path
     id="path948"
     style="fill:#FFFFFF;fill-opacity:1;fill-rule:nonzero;stroke:none;stroke-width:0.352778"
     d="m 49.9795,10.383008 c -0.541867,0.3556 -1.056922,0.891117 -1.545167,1.609019 v -1.820686 h -1.637241 v 12.453408 h 1.637241 v -4.211108 c 0,-2.160058 0.09948,-3.595511 0.297392,-4.304947 0.26035,-0.923572 0.63747,-1.603375 1.133828,-2.042936 0.495653,-0.439208 1.011061,-0.658636 1.544814,-0.658636 0.228952,0 0.511175,0.07267 0.847725,0.218369 l 0.835377,-1.351139 C 52.589703,9.9924829 52.116628,9.8503135 51.673892,9.8503135 c -0.587728,0 -1.152525,0.1778005 -1.694392,0.5326945" />
  <path
     id="path952"
     style="fill:#FFFFFF;fill-opacity:1;fill-rule:nonzero;stroke:none;stroke-width:0.352778"
     d="m 63.926816,19.786052 c -0.896408,0.88512 -2.081036,1.327856 -3.55353,1.327856 -1.457678,0 -2.644422,-0.446617 -3.559881,-1.337381 -0.916164,-0.894644 -1.374069,-2.02318 -1.374069,-3.390194 0,-0.899583 0.221544,-1.737078 0.664633,-2.511778 0.442031,-0.774347 1.052689,-1.380419 1.830564,-1.820686 0.778581,-0.438855 1.622072,-0.65793 2.530122,-0.65793 0.870656,0 1.68275,0.214136 2.438047,0.64135 0.75565,0.427214 1.339145,1.009297 1.751189,1.745897 0.412397,0.7366 0.618772,1.57233 0.618772,2.51213 0,1.44145 -0.448733,2.605264 -1.345847,3.490736 m 1.265767,-7.451019 c -0.748947,-0.885119 -1.525764,-1.521883 -2.331861,-1.906058 -0.80645,-0.385586 -1.674989,-0.5785557 -2.607028,-0.5785557 -1.122892,0 -2.19075,0.2899837 -3.202517,0.8710087 -1.011766,0.579966 -1.804458,1.367366 -2.377369,2.3622 -0.572911,0.996597 -0.859367,2.072216 -0.859367,3.222625 0,1.152172 0.274814,2.209799 0.825148,3.171824 0.549627,0.96132 1.328561,1.726142 2.3368,2.293762 1.008591,0.569736 2.085269,0.853016 3.231797,0.853016 0.977547,0 1.902177,-0.203553 2.772127,-0.612069 0.871362,-0.407811 1.60902,-0.993422 2.21227,-1.756834 v 0.64135 c 0,1.371248 -0.160867,2.366081 -0.481895,2.982736 -0.321027,0.616303 -0.85725,1.128184 -1.609725,1.533878 -0.752827,0.407106 -1.676047,0.610659 -2.767894,0.610659 -1.108075,0 -2.03588,-0.198614 -2.784828,-0.595489 -0.748947,-0.396875 -1.360311,-1.006475 -1.834091,-1.830564 h -1.739195 c 0.450145,0.979664 0.941564,1.722966 1.47567,2.233789 0.534811,0.507294 1.227666,0.912989 2.078566,1.214966 0.850548,0.303742 1.809397,0.454378 2.878667,0.454378 1.457325,0 2.7051,-0.309739 3.742267,-0.9271 1.038224,-0.618419 1.767063,-1.499658 2.186869,-2.644069 0.305153,-0.809625 0.457553,-2.087739 0.457553,-3.835047 v -9.923992 h -1.601964 z" />
  <path
     id="path956"
     style="fill:#FFFFFF;fill-opacity:1;fill-rule:nonzero;stroke:none;stroke-width:0.352778"
     d="m 80.333558,18.985035 c -0.436739,0.777522 -1.026231,1.379009 -1.769181,1.802342 -0.74295,0.424392 -1.558219,0.635705 -2.446866,0.635705 -0.887942,0 -1.703211,-0.211313 -2.446514,-0.635705 -0.742245,-0.423333 -1.332089,-1.02482 -1.768828,-1.802342 -0.436386,-0.778228 -0.654755,-1.618191 -0.654755,-2.518127 0,-1.395589 0.478719,-2.586567 1.435805,-3.570817 0.956733,-0.98425 2.102203,-1.476022 3.434292,-1.476022 1.32468,0 2.467327,0.491772 3.429,1.476022 0.960966,0.98425 1.441802,2.175228 1.441802,3.570817 0,0.899936 -0.218016,1.739899 -0.654755,2.518127 m -4.21005,-9.1348273 c -1.92652,0 -3.520722,0.6988523 -4.78155,2.0958523 -1.146528,1.266825 -1.720497,2.763309 -1.720497,4.487334 0,1.739194 0.606778,3.259313 1.818216,4.561063 1.211439,1.30175 2.772834,1.95192 4.683831,1.95192 1.903941,0 3.461103,-0.65017 4.672894,-1.95192 1.211086,-1.30175 1.817864,-2.821869 1.817864,-4.561063 0,-1.732845 -0.573617,-3.232503 -1.720497,-4.498975 -1.260828,-1.388886 -2.850797,-2.0842113 -4.770261,-2.0842113" />
  <path
     id="path960"
     style="fill:#FFFFFF;fill-opacity:1;fill-rule:nonzero;stroke:none;stroke-width:0.352778"
     d="m 96.357042,18.893772 c -0.445559,0.794102 -1.045281,1.4097 -1.798814,1.849261 -0.753534,0.437444 -1.576211,0.65793 -2.466622,0.65793 -1.385712,0 -2.551995,-0.485422 -3.500261,-1.453797 -0.947914,-0.970139 -1.422048,-2.175228 -1.422048,-3.616678 0,-0.947208 0.211667,-1.797402 0.633942,-2.554111 0.422628,-0.753886 1.027994,-1.356077 1.8161,-1.802341 0.787753,-0.446617 1.619603,-0.669925 2.49555,-0.669925 0.860072,0 1.668639,0.223308 2.426758,0.669925 0.757061,0.446264 1.360664,1.07068 1.809397,1.871133 0.449086,0.801158 0.674511,1.645003 0.674511,2.530828 0,0.885472 -0.223308,1.72473 -0.668513,2.517775 M 92.269758,9.8503135 c -0.991658,0 -1.901825,0.2046115 -2.732969,0.6127745 -0.830439,0.408517 -1.582208,1.02482 -2.252839,1.84785 V 5.3629803 H 85.681281 V 22.624749 h 1.602669 v -2.289527 c 0.632178,0.869597 1.361017,1.524 2.1844,1.958975 0.823031,0.433916 1.741664,0.652286 2.755547,0.652286 1.768475,0 3.281892,-0.637823 4.539897,-1.912761 1.2573,-1.273881 1.886303,-2.811639 1.886303,-4.612217 0,-1.823861 -0.623005,-3.374672 -1.869017,-4.65208 -1.247069,-1.278114 -2.750608,-1.9191115 -4.511322,-1.9191115" />
  <path
     id="path964"
     style="fill:#FFFFFF;fill-opacity:1;fill-rule:nonzero;stroke:none;stroke-width:0.352778"
     d="m 111.67426,18.985035 c -0.43673,0.777522 -1.02587,1.379009 -1.76918,1.802342 -0.74295,0.424392 -1.55892,0.635705 -2.44616,0.635705 -0.889,0 -1.70462,-0.211313 -2.44722,-0.635705 -0.74295,-0.423333 -1.33279,-1.02482 -1.76882,-1.802342 -0.4371,-0.778228 -0.65476,-1.618191 -0.65476,-2.518127 0,-1.395589 0.47872,-2.586567 1.43581,-3.570817 0.95708,-0.98425 2.10149,-1.476022 3.43499,-1.476022 1.32398,0 2.46768,0.491772 3.4283,1.476022 0.96132,0.98425 1.44109,2.175228 1.44109,3.570817 0,0.899936 -0.21766,1.739899 -0.65405,2.518127 m -4.2104,-9.1348273 c -1.92652,0 -3.52037,0.6988523 -4.7812,2.0958523 -1.14688,1.266825 -1.72049,2.763309 -1.72049,4.487334 0,1.739194 0.60642,3.259313 1.81751,4.561063 1.2125,1.30175 2.77318,1.95192 4.68418,1.95192 1.90359,0 3.4611,-0.65017 4.67325,-1.95192 1.21108,-1.30175 1.81716,-2.821869 1.81716,-4.561063 0,-1.732845 -0.57362,-3.232503 -1.71979,-4.498975 -1.26154,-1.388886 -2.85151,-2.0842113 -4.77062,-2.0842113" />
  <path
     id="path968"
     style="fill:#FFFFFF;fill-opacity:1;fill-rule:nonzero;stroke:none;stroke-width:0.352778"
     d="m 119.91805,5.5474478 h -1.60267 v 4.6238582 h -2.18581 v 1.385358 h 2.18581 v 11.06805 h 1.60267 v -11.06805 h 2.54141 v -1.385358 h -2.54141 z" />
  <path
     id="path972"
     style="fill:#FFFFFF;fill-opacity:1;fill-rule:nonzero;stroke:none;stroke-width:0.352778"
     d="m 130.50484,17.326239 c -0.42792,-0.573617 -1.23896,-1.168753 -2.43276,-1.78682 -0.97825,-0.503766 -1.62066,-0.941563 -1.92687,-1.316566 -0.30551,-0.365831 -0.45826,-0.751064 -0.45826,-1.154642 0,-0.458258 0.18556,-0.859366 0.55633,-1.203678 0.37112,-0.342547 0.81668,-0.515408 1.33703,-0.515408 0.8188,0 1.65629,0.417336 2.51354,1.249186 l 1.03011,-1.064683 c -1.1624,-1.121128 -2.31598,-1.6831028 -3.46216,-1.6831028 -0.98601,0 -1.80234,0.3139718 -2.44863,0.9383888 -0.64594,0.626181 -0.96908,1.412522 -0.96908,2.358672 0,0.725311 0.20285,1.369484 0.60889,1.934634 0.40464,0.563738 1.16946,1.137355 2.29376,1.716263 1.04775,0.534811 1.72015,0.976842 2.01895,1.328561 0.2981,0.35807 0.44768,0.766587 0.44768,1.224139 0,0.556684 -0.22613,1.042459 -0.67698,1.453797 -0.45226,0.41275 -0.99872,0.618067 -1.64148,0.618067 -0.91793,0 -1.78611,-0.460728 -2.6042,-1.383947 l -1.00718,1.143705 c 0.42756,0.548923 0.96872,0.981075 1.62207,1.293989 0.65405,0.313267 1.33949,0.4699 2.0581,0.4699 1.07739,0 1.97521,-0.3556 2.69346,-1.065389 0.71967,-0.710494 1.07809,-1.576211 1.07809,-2.598913 0,-0.724253 -0.21026,-1.376539 -0.63041,-1.956153" />
</svg>
