<svg xmlns="http://www.w3.org/2000/svg" width="20mm" height="20mm" viewBox="0 15 105 45">
    <path
       id="path928"
       style="fill:#0098d9;fill-opacity:1;fill-rule:nonzero;stroke:none;stroke-width:0.352778"
       d="m 65.459346,11.863468 v 22.1615 L 54.207147,25.768909 Z m -21.127508,11.422591 4.27602,3.139723 -0.0046,0.006 3.183113,2.335389 1.486253,1.080558 L 69.69196,41.89509 V 0.27577666 L 50.980288,23.401418 46.75013,20.297326 Z" />
    <path
       id="path932"
       style="fill:#0e3869;fill-opacity:1;fill-rule:nonzero;stroke:none;stroke-width:0.352778"
       d="m 41.183967,41.895052 5.588,-6.90492 -3.227564,-2.369608 -7.503936,9.274528 z" />
    <path
       id="path936"
       style="fill:#3f3b3a;fill-opacity:1;fill-rule:nonzero;stroke:none;stroke-width:0.352778"
       d="M 8.1617108,53.033586 0.20621928,69.871668 H 2.0837026 l 2.6229027,-5.538964 0.7694083,-1.624894 2.8850166,-6.095293 2.8712578,6.095293 0.727781,1.624894 1.773061,3.707695 H 5.1264108 l -0.6925027,1.831269 h 10.1748169 0.470252 1.3462 L 8.5737552,53.033586 Z" />
    <path
       id="path948"
       style="fill:#3f3b3a;fill-opacity:1;fill-rule:nonzero;stroke:none;stroke-width:0.352778"
       d="m 21.347803,57.630034 c -0.541867,0.355599 -1.056922,0.891115 -1.545167,1.609018 v -1.820685 h -1.637241 v 12.453407 h 1.637241 v -4.211108 c 0,-2.160058 0.09948,-3.595511 0.297392,-4.304947 0.26035,-0.923573 0.637469,-1.603375 1.133828,-2.042936 0.495653,-0.439209 1.011061,-0.658636 1.544814,-0.658636 0.228952,0 0.511176,0.07267 0.847726,0.218369 l 0.835378,-1.351138 c -0.503767,-0.281869 -0.976842,-0.424039 -1.419579,-0.424039 -0.587728,0 -1.152525,0.1778 -1.694392,0.532695" />
    <path
       id="path952"
       style="fill:#3f3b3a;fill-opacity:1;fill-rule:nonzero;stroke:none;stroke-width:0.352778"
       d="m 35.295118,67.033077 c -0.896408,0.88512 -2.081036,1.327856 -3.55353,1.327856 -1.457676,0 -2.64442,-0.446617 -3.559878,-1.337381 -0.916164,-0.894644 -1.37407,-2.02318 -1.37407,-3.390194 0,-0.899583 0.221545,-1.737078 0.664633,-2.511778 0.442031,-0.774347 1.052689,-1.380419 1.830564,-1.820686 0.778581,-0.438856 1.622072,-0.657931 2.53012,-0.657931 0.870656,0 1.68275,0.214137 2.438047,0.64135 0.75565,0.427214 1.339145,1.009298 1.751189,1.745898 0.412398,0.7366 0.618773,1.57233 0.618773,2.51213 0,1.44145 -0.448734,2.605264 -1.345848,3.490736 m 1.265767,-7.451019 c -0.748947,-0.88512 -1.525764,-1.521883 -2.331861,-1.906057 -0.80645,-0.385586 -1.674989,-0.578556 -2.607028,-0.578556 -1.12289,0 -2.190748,0.289983 -3.202514,0.871007 -1.011767,0.579967 -1.804459,1.367367 -2.37737,2.3622 -0.572911,0.996598 -0.859366,2.072217 -0.859366,3.222625 0,1.152172 0.274814,2.2098 0.825147,3.171825 0.549628,0.96132 1.328561,1.726142 2.3368,2.293761 1.008591,0.569736 2.085269,0.853017 3.231795,0.853017 0.977547,0 1.902178,-0.203553 2.772128,-0.61207 0.871361,-0.407811 1.609019,-0.993422 2.212269,-1.756833 v 0.64135 c 0,1.371247 -0.160867,2.366081 -0.481894,2.982736 -0.321028,0.616303 -0.85725,1.128184 -1.609725,1.533878 -0.752828,0.407105 -1.676048,0.610658 -2.767895,0.610658 -1.108073,0 -2.035878,-0.198614 -2.784825,-0.595489 -0.748948,-0.396875 -1.360311,-1.006475 -1.834092,-1.830563 H 25.34326 c 0.450144,0.979663 0.941563,1.722966 1.475669,2.233788 0.534811,0.507295 1.227667,0.912989 2.078567,1.214967 0.850547,0.303742 1.809396,0.454378 2.878664,0.454378 1.457325,0 2.7051,-0.309739 3.742267,-0.9271 1.038225,-0.61842 1.767064,-1.499658 2.186869,-2.64407 0.305153,-0.809625 0.457553,-2.087738 0.457553,-3.835047 v -9.92399 h -1.601964 z" />
    <path
       id="path956"
       style="fill:#3f3b3a;fill-opacity:1;fill-rule:nonzero;stroke:none;stroke-width:0.352778"
       d="m 51.70186,66.23206 c -0.436739,0.777522 -1.026231,1.379008 -1.769181,1.802342 -0.74295,0.424391 -1.558219,0.635705 -2.446866,0.635705 -0.887942,0 -1.703211,-0.211314 -2.446514,-0.635705 -0.742244,-0.423334 -1.332089,-1.02482 -1.768828,-1.802342 -0.436386,-0.778228 -0.654755,-1.618192 -0.654755,-2.518128 0,-1.395589 0.478719,-2.586566 1.435805,-3.570816 0.956734,-0.98425 2.102203,-1.476023 3.434292,-1.476023 1.32468,0 2.467328,0.491773 3.429,1.476023 0.960966,0.98425 1.441802,2.175227 1.441802,3.570816 0,0.899936 -0.218016,1.7399 -0.654755,2.518128 m -4.21005,-9.134827 c -1.926519,0 -3.520722,0.698853 -4.78155,2.095852 -1.146528,1.266825 -1.720497,2.763308 -1.720497,4.487333 0,1.739195 0.606778,3.259314 1.818217,4.561064 1.211438,1.30175 2.772833,1.95192 4.68383,1.95192 1.903942,0 3.461103,-0.65017 4.672894,-1.95192 1.211086,-1.30175 1.817864,-2.821869 1.817864,-4.561064 0,-1.732844 -0.573616,-3.232502 -1.720497,-4.498975 -1.260828,-1.388885 -2.850797,-2.08421 -4.770261,-2.08421" />
    <path
       id="path960"
       style="fill:#3f3b3a;fill-opacity:1;fill-rule:nonzero;stroke:none;stroke-width:0.352778"
       d="m 67.725344,66.140796 c -0.445559,0.794103 -1.045281,1.4097 -1.798814,1.849261 -0.753533,0.437445 -1.576211,0.657931 -2.466622,0.657931 -1.385711,0 -2.551995,-0.485422 -3.500261,-1.453797 -0.947914,-0.970139 -1.422047,-2.175228 -1.422047,-3.616678 0,-0.947208 0.211666,-1.797403 0.633941,-2.554111 0.422628,-0.753886 1.027995,-1.356078 1.8161,-1.802342 0.787753,-0.446616 1.619603,-0.669925 2.49555,-0.669925 0.860072,0 1.668639,0.223309 2.426758,0.669925 0.757061,0.446264 1.360664,1.070681 1.809398,1.871134 0.449086,0.801158 0.674511,1.645002 0.674511,2.530827 0,0.885473 -0.223309,1.724731 -0.668514,2.517775 m -4.087283,-9.043457 c -0.991659,0 -1.901825,0.204611 -2.73297,0.612775 -0.830439,0.408516 -1.582208,1.024819 -2.252839,1.847849 v -6.947957 h -1.602669 v 17.261768 h 1.602669 v -2.289528 c 0.632178,0.869598 1.361017,1.524 2.1844,1.958975 0.823031,0.433917 1.741664,0.652286 2.755547,0.652286 1.768475,0 3.281892,-0.637822 4.539898,-1.912761 1.257299,-1.27388 1.886302,-2.811639 1.886302,-4.612216 0,-1.823861 -0.623005,-3.374672 -1.869016,-4.652081 -1.24707,-1.278112 -2.750609,-1.91911 -4.511322,-1.91911" />
    <path
       id="path964"
       style="fill:#3f3b3a;fill-opacity:1;fill-rule:nonzero;stroke:none;stroke-width:0.352778"
       d="m 83.042566,66.23206 c -0.436738,0.777522 -1.025877,1.379008 -1.76918,1.802342 -0.74295,0.424391 -1.558925,0.635705 -2.446161,0.635705 -0.889,0 -1.704622,-0.211314 -2.447219,-0.635705 -0.74295,-0.423334 -1.332795,-1.02482 -1.768828,-1.802342 -0.437092,-0.778228 -0.654756,-1.618192 -0.654756,-2.518128 0,-1.395589 0.47872,-2.586566 1.435806,-3.570816 0.957086,-0.98425 2.101497,-1.476023 3.434997,-1.476023 1.323975,0 2.46768,0.491773 3.428294,1.476023 0.96132,0.98425 1.441097,2.175227 1.441097,3.570816 0,0.899936 -0.217663,1.7399 -0.65405,2.518128 m -4.210402,-9.134827 c -1.92652,0 -3.52037,0.698853 -4.781197,2.095852 -1.146881,1.266825 -1.720498,2.763308 -1.720498,4.487333 0,1.739195 0.606425,3.259314 1.817512,4.561064 1.212497,1.30175 2.773186,1.95192 4.684183,1.95192 1.903589,0 3.461102,-0.65017 4.673247,-1.95192 1.211086,-1.30175 1.817158,-2.821869 1.817158,-4.561064 0,-1.732844 -0.573616,-3.232502 -1.719791,-4.498975 -1.261534,-1.388885 -2.851503,-2.08421 -4.770614,-2.08421" />
    <path
       id="path968"
       style="fill:#3f3b3a;fill-opacity:1;fill-rule:nonzero;stroke:none;stroke-width:0.352778"
       d="m 91.286348,52.794474 h -1.602669 v 4.623858 h -2.185812 v 1.385357 h 2.185812 v 11.06805 h 1.602669 v -11.06805 h 2.541411 v -1.385357 h -2.541411 z" />
    <path
       id="path972"
       style="fill:#3f3b3a;fill-opacity:1;fill-rule:nonzero;stroke:none;stroke-width:0.352778"
       d="m 101.87314,64.573264 c -0.42792,-0.573617 -1.23896,-1.168753 -2.432757,-1.78682 -0.978253,-0.503766 -1.620661,-0.941564 -1.926872,-1.316566 -0.305506,-0.365831 -0.458259,-0.751064 -0.458259,-1.154642 0,-0.458258 0.185561,-0.859367 0.556331,-1.203678 0.371122,-0.342547 0.81668,-0.515408 1.337028,-0.515408 0.818797,0 1.656289,0.417336 2.513539,1.249186 l 1.03011,-1.064683 c -1.1624,-1.121127 -2.31598,-1.683102 -3.462158,-1.683102 -0.986014,0 -1.802341,0.313972 -2.44863,0.938388 -0.645936,0.62618 -0.969081,1.412522 -0.969081,2.358672 0,0.725311 0.202847,1.369483 0.608895,1.934633 0.404636,0.563739 1.169458,1.137356 2.293761,1.716264 1.04775,0.534811 1.720143,0.976842 2.018943,1.328561 0.2981,0.35807 0.44768,0.766586 0.44768,1.224139 0,0.556683 -0.22613,1.042458 -0.67698,1.453797 -0.452263,0.41275 -0.998716,0.618067 -1.641477,0.618067 -0.917927,0 -1.786113,-0.460728 -2.604205,-1.383947 l -1.007181,1.143705 c 0.427567,0.548922 0.968728,0.981075 1.622073,1.293989 0.654049,0.313267 1.339497,0.4699 2.058105,0.4699 1.077383,0 1.975205,-0.3556 2.693455,-1.065389 0.71967,-0.710494 1.07809,-1.576211 1.07809,-2.598914 0,-0.724252 -0.21025,-1.376538 -0.63041,-1.956152" />
</svg>