<svg fill="#ffffff" xmlns="http://www.w3.org/2000/svg" width="47.5mm" height="11mm" viewBox="0 0 47.5 11">
      <path
         id="path67"
         style="font-weight:normal;stroke-width:0.264583"
         d="M 7.2302603,8.2715521 H 6.139891 L 5.3854175,6.126987 H 2.0574659 L 1.3029924,8.2715521 H 0.26429939 L 3.0651531,0.57695582 H 4.4294066 Z M 5.0701923,5.2484904 3.7214417,1.4709552 2.3675235,5.2484904 Z" />
      <path
         id="path69"
         style="font-weight:normal;stroke-width:0.264583"
         d="m 11.922465,3.5586765 h -0.05168 q -0.21704,-0.051676 -0.423745,-0.072347 -0.201538,-0.025838 -0.48059,-0.025838 -0.449583,0 -0.868161,0.2015374 -0.4185778,0.1963698 -0.8061498,0.5115951 v 4.097928 H 8.3206294 V 2.499313 H 9.2921432 V 3.3519714 Q 9.8709174,2.886885 10.310166,2.6956828 10.754582,2.499313 11.2145,2.499313 q 0.253214,0 0.366902,0.015503 0.113688,0.010335 0.341063,0.046509 z" />
      <path
         id="path71"
         style="font-weight:normal;stroke-width:0.264583"
         d="m 17.52934,7.6152635 q 0,1.467606 -0.666623,2.1549004 -0.666624,0.6872941 -2.051548,0.6872941 -0.459919,0 -0.899167,-0.06718 -0.434081,-0.06201 -0.857826,-0.180867 V 9.2172278 h 0.05168 q 0.237711,0.093017 0.754473,0.2273756 0.516763,0.1395259 1.033526,0.1395259 0.496092,0 0.821652,-0.1188554 0.325561,-0.1188554 0.506428,-0.3307281 0.180867,-0.2015375 0.258381,-0.485757 0.07751,-0.2842194 0.07751,-0.6356181 V 7.4860728 q -0.439249,0.3513986 -0.842324,0.5270979 -0.397907,0.1705317 -1.018022,0.1705317 -1.033525,0 -1.643305,-0.7441382 -0.604613,-0.7493059 -0.604613,-2.1083917 0,-0.7441383 0.206705,-1.2815715 0.211873,-0.5426008 0.573607,-0.9353404 0.335896,-0.3669015 0.816485,-0.568439 0.480589,-0.2067051 0.956011,-0.2067051 0.50126,0 0.837155,0.1033526 0.341064,0.098185 0.718301,0.30489 L 16.619838,2.499313 H 17.52934 Z M 16.557827,6.6850907 V 3.538006 q -0.387572,-0.1756994 -0.723468,-0.2480461 -0.330728,-0.077514 -0.661456,-0.077514 -0.800983,0 -1.260901,0.5374332 -0.459919,0.5374331 -0.459919,1.5606232 0,0.9715139 0.341063,1.4727737 0.341064,0.5012598 1.13171,0.5012598 0.423746,0 0.847491,-0.1601965 0.428913,-0.165364 0.78548,-0.4392482 z" />
      <path
         id="path73"
         style="font-weight:normal;stroke-width:0.264583"
         d="m 24.360942,5.3880163 q 0,1.4107622 -0.723467,2.2272472 -0.723468,0.816485 -1.93786,0.816485 -1.224728,0 -1.948196,-0.816485 -0.7183,-0.816485 -0.7183,-2.2272472 0,-1.4107621 0.7183,-2.2272471 0.723468,-0.8216527 1.948196,-0.8216527 1.214392,0 1.93786,0.8216527 0.723467,0.816485 0.723467,2.2272471 z m -1.002519,0 q 0,-1.121375 -0.439249,-1.6639758 -0.439248,-0.5477684 -1.219559,-0.5477684 -0.790647,0 -1.229896,0.5477684 -0.43408,0.5426008 -0.43408,1.6639758 0,1.0852017 0.439248,1.648473 0.439248,0.5581037 1.224728,0.5581037 0.775144,0 1.214392,-0.5529361 0.444416,-0.5581037 0.444416,-1.6536406 z" />
      <path
         id="path75"
         style="font-weight:normal;stroke-width:0.264583"
         d="m 30.949667,5.3415077 q 0,0.7234678 -0.206705,1.302242 -0.201538,0.5787742 -0.547769,0.9715138 -0.366901,0.4082425 -0.80615,0.6149476 -0.439248,0.2015374 -0.966346,0.2015374 -0.490924,0 -0.857826,-0.1188554 Q 27.19797,8.1992053 26.841403,8.0028355 l -0.06201,0.2687166 H 25.869889 V 0.23072482 h 0.971514 V 3.1039253 q 0.408243,-0.3358957 0.868162,-0.5477684 0.459918,-0.2170404 1.033525,-0.2170404 1.02319,0 1.6123,0.7854793 0.594277,0.7854793 0.594277,2.2169119 z m -1.00252,0.025838 q 0,-1.0335253 -0.341063,-1.5657909 -0.341064,-0.5374332 -1.100705,-0.5374332 -0.423745,0 -0.857826,0.1860346 -0.434081,0.1808669 -0.80615,0.470254 v 3.3072812 q 0.41341,0.1860345 0.707965,0.2583813 0.299723,0.072347 0.676959,0.072347 0.80615,0 1.260901,-0.5270979 0.459919,-0.5322656 0.459919,-1.6639759 z" />
      <path
         id="path77"
         style="font-weight:normal;stroke-width:0.264583"
         d="m 37.383363,5.3880163 q 0,1.4107622 -0.723468,2.2272472 -0.723467,0.816485 -1.93786,0.816485 -1.224727,0 -1.948195,-0.816485 -0.7183,-0.816485 -0.7183,-2.2272472 0,-1.4107621 0.7183,-2.2272471 0.723468,-0.8216527 1.948195,-0.8216527 1.214393,0 1.93786,0.8216527 0.723468,0.816485 0.723468,2.2272471 z m -1.002519,0 q 0,-1.121375 -0.439249,-1.6639758 -0.439248,-0.5477684 -1.21956,-0.5477684 -0.790646,0 -1.229895,0.5477684 -0.43408,0.5426008 -0.43408,1.6639758 0,1.0852017 0.439248,1.648473 0.439248,0.5581037 1.224727,0.5581037 0.775144,0 1.214393,-0.5529361 0.444416,-0.5581037 0.444416,-1.6536406 z" />
      <path
         id="path79"
         style="font-weight:normal;stroke-width:0.264583"
         d="m 41.889534,8.2198758 q -0.273884,0.072347 -0.599445,0.1188554 -0.320393,0.046509 -0.573606,0.046509 -0.883665,0 -1.343583,-0.4754217 Q 38.912981,7.4343965 38.912981,6.3853683 V 3.315798 H 38.256692 V 2.499313 h 0.656289 V 0.84050478 h 0.971514 V 2.499313 h 2.005039 V 3.315798 H 39.884495 V 5.94612 q 0,0.4547512 0.02067,0.7131325 0.02067,0.2532137 0.144694,0.4754217 0.113688,0.2067051 0.310057,0.30489 0.201538,0.093017 0.60978,0.093017 0.237711,0 0.496093,-0.067179 0.258381,-0.072347 0.372069,-0.1188554 h 0.05168 z" />
      <path
         id="path81"
         style="font-weight:normal;stroke-width:0.264583"
         d="m 47.191518,6.6075763 q 0,0.7906469 -0.656288,1.2970743 -0.651121,0.5064274 -1.782832,0.5064274 -0.640785,0 -1.178218,-0.1498612 -0.532266,-0.1550288 -0.894,-0.3358957 V 6.8349518 h 0.05168 q 0.459919,0.346231 1.02319,0.5529361 0.563272,0.2015375 1.080034,0.2015375 0.640786,0 1.00252,-0.2067051 0.361734,-0.2067051 0.361734,-0.651121 0,-0.3410634 -0.19637,-0.5167627 Q 45.806594,6.0391373 45.248491,5.9151143 45.041786,5.8686056 44.70589,5.8065941 44.375162,5.7445826 44.101277,5.6722358 43.341636,5.4706984 43.021243,5.0831264 42.706018,4.6903867 42.706018,4.1219478 q 0,-0.3565663 0.144694,-0.6717915 0.149861,-0.3152252 0.449583,-0.5632713 0.289387,-0.2428785 0.733803,-0.3824044 0.449584,-0.1446935 1.00252,-0.1446935 0.516763,0 1.043861,0.1291906 0.532265,0.1240231 0.883664,0.30489 v 1.038693 h -0.05168 Q 46.540397,3.5586765 46.008132,3.3726419 45.475866,3.1814397 44.964271,3.1814397 q -0.532265,0 -0.899167,0.2067051 -0.366901,0.2015374 -0.366901,0.6046123 0,0.3565663 0.222208,0.5374332 0.21704,0.1808669 0.702797,0.2945547 0.268716,0.062011 0.599444,0.1240231 0.335896,0.062012 0.558104,0.1136878 0.676959,0.1550288 1.043861,0.5322655 0.366901,0.3824044 0.366901,1.0128549 z" />
</svg>
