<?xml version="1.0" encoding="UTF-8" standalone="no"?>
<svg
   xmlns:dc="http://purl.org/dc/elements/1.1/"
   xmlns:cc="http://creativecommons.org/ns#"
   xmlns:rdf="http://www.w3.org/1999/02/22-rdf-syntax-ns#"
   xmlns:svg="http://www.w3.org/2000/svg"
   xmlns="http://www.w3.org/2000/svg"
   xmlns:sodipodi="http://sodipodi.sourceforge.net/DTD/sodipodi-0.dtd"
   xmlns:inkscape="http://www.inkscape.org/namespaces/inkscape"
   sodipodi:docname="support2.svg"
   inkscape:version="1.0 (4035a4fb49, 2020-05-01)"
   id="svg8"
   version="1.1"
   viewBox="0 0 440 290"
   height="290mm"
   width="440mm">
  <defs
     id="defs2">
    <clipPath
       id="clip0">
      <rect
         x="17"
         y="15"
         width="1105"
         height="874"
         id="rect833" />
    </clipPath>
    <clipPath
       id="clip0-5">
      <rect
         id="rect1455"
         height="386"
         width="526"
         y="35"
         x="689" />
    </clipPath>
    <clipPath
       id="clip0-4">
      <rect
         id="rect1690"
         height="386"
         width="526"
         y="35"
         x="689" />
    </clipPath>
    <clipPath
       id="clip0-7">
      <rect
         id="rect2160"
         height="386"
         width="526"
         y="35"
         x="689" />
    </clipPath>
    <clipPath
       id="clip0-3">
      <rect
         id="rect2771"
         height="386"
         width="526"
         y="35"
         x="689" />
    </clipPath>
  </defs>
  <sodipodi:namedview
     inkscape:window-maximized="1"
     inkscape:window-y="2149"
     inkscape:window-x="-11"
     inkscape:window-height="2066"
     inkscape:window-width="3840"
     showgrid="false"
     inkscape:document-rotation="0"
     inkscape:current-layer="layer1"
     inkscape:document-units="mm"
     inkscape:cy="1668.3493"
     inkscape:cx="602.53175"
     inkscape:zoom="0.35"
     inkscape:pageshadow="2"
     inkscape:pageopacity="0.0"
     borderopacity="1.0"
     bordercolor="#666666"
     pagecolor="#ffffff"
     id="base" />
  <metadata
     id="metadata5">
    <rdf:RDF>
      <cc:Work
         rdf:about="">
        <dc:format>image/svg+xml</dc:format>
        <dc:type
           rdf:resource="http://purl.org/dc/dcmitype/StillImage" />
        <dc:title></dc:title>
      </cc:Work>
    </rdf:RDF>
  </metadata>
  <g
     id="layer1"
     inkscape:groupmode="layer"
     inkscape:label="Layer 1">
    <path
       d="m 14.22619,108.38691 h 127 v 38 h -127 z"
       style="fill:#1b8ec9;stroke-width:1"
       id="rect1560" />
    <path
       d="m 52.94419,126.88691 h 1.3125 l 2.25,3.14843 2.25,-3.14843 h 1.3125 l -2.90625,4.03906 3.27344,4.46094 h -1.32812 l -2.60157,-3.57032 -2.5625,3.57032 h -1.30468 l 3.21874,-4.46094 z"
       style="font-weight:400;font-size:16px;font-family:'Century Gothic', 'Century Gothic_MSFontService', sans-serif;fill:#ffffff;stroke-width:1"
       id="path1684" />
    <path
       d="m 66.53013,129.08222 q 1.16406,0.57812 1.66406,1.32031 0.50781,0.74219 0.50781,1.6875 0,1.32813 -0.86718,2.34375 -1.0625,1.24219 -3.03907,1.24219 -1.90624,0 -2.89062,-1.08594 -0.98438,-1.09375 -0.98438,-2.40625 0,-0.96094 0.51563,-1.72656 0.51563,-0.77344 1.71875,-1.375 -0.84375,-0.4375 -1.26562,-1.08594 -0.42188,-0.64844 -0.42188,-1.39062 0,-0.75 0.44531,-1.46094 0.45313,-0.71875 1.24219,-1.125 0.79687,-0.41406 1.71875,-0.41406 0.89844,0 1.66406,0.41406 0.76563,0.41406 1.19531,1.125 0.43751,0.71094 0.43751,1.49219 0,0.78125 -0.41407,1.39062 -0.40625,0.60938 -1.22656,1.05469 z m -1.71094,-4.35938 q -0.94531,0 -1.57031,0.5625 -0.61719,0.55469 -0.61719,1.32813 0,0.76562 0.66407,1.39062 0.67187,0.61719 1.56249,0.61719 0.57032,0 1.07813,-0.28125 0.50781,-0.28125 0.78906,-0.76562 0.28907,-0.49219 0.28907,-0.98438 0,-0.69531 -0.56251,-1.28125 -0.56249,-0.58594 -1.63281,-0.58594 z m 0.0547,4.9375 q -1.1875,0 -1.99218,0.77344 -0.80469,0.76563 -0.80469,1.78906 0,0.63282 0.34375,1.19532 0.34375,0.5625 0.96094,0.86718 0.61718,0.30469 1.42968,0.30469 1.25782,0 2,-0.74219 0.74219,-0.74218 0.74219,-1.73437 0,-0.96094 -0.78906,-1.70313 -0.78125,-0.75 -1.89063,-0.75 z"
       style="font-weight:400;font-size:16px;font-family:'Century Gothic', 'Century Gothic_MSFontService', sans-serif;fill:#ffffff;stroke-width:1"
       id="path1686" />
    <path
       d="m 75.12388,123.60566 0.94531,0.61718 -3.10156,4.70313 q 0.625,-0.21094 1.17187,-0.21094 1.36719,0 2.32032,0.99219 0.95312,0.98437 0.95312,2.42969 0,0.99218 -0.46094,1.79687 -0.46093,0.79688 -1.3125,1.27344 -0.84374,0.46875 -1.82031,0.46875 -0.94531,0 -1.75781,-0.45313 -0.80469,-0.46093 -1.26562,-1.28906 -0.46094,-0.82812 -0.46094,-1.77344 0,-0.70312 0.28125,-1.47656 0.28906,-0.78125 1.02343,-1.875 z m -1.25781,6.11718 q -1,0 -1.71094,0.71094 -0.70313,0.70313 -0.70313,1.71094 0,1 0.70313,1.71094 0.71094,0.70312 1.71094,0.70312 1,0 1.70312,-0.70312 0.71094,-0.71094 0.71094,-1.71094 0,-1.00781 -0.71094,-1.71094 -0.70312,-0.71094 -1.70312,-0.71094 z"
       style="font-weight:400;font-size:16px;font-family:'Century Gothic', 'Century Gothic_MSFontService', sans-serif;fill:#ffffff;stroke-width:1"
       id="path1688" />
    <path
       d="m 84.66294,123.60566 -4.77343,13.34375 h -1.19532 l 4.76563,-13.34375 z"
       style="font-weight:400;font-size:16px;font-family:'Century Gothic', 'Century Gothic_MSFontService', sans-serif;fill:#ffffff;stroke-width:1"
       id="path1690" />
    <path
       d="m 90.99888,123.60566 0.94531,0.61718 -3.10156,4.70313 q 0.625,-0.21094 1.17187,-0.21094 1.36719,0 2.32032,0.99219 0.95312,0.98437 0.95312,2.42969 0,0.99218 -0.46094,1.79687 -0.46093,0.79688 -1.3125,1.27344 -0.84374,0.46875 -1.82031,0.46875 -0.94531,0 -1.75781,-0.45313 -0.80469,-0.46093 -1.26562,-1.28906 -0.46094,-0.82812 -0.46094,-1.77344 0,-0.70312 0.28125,-1.47656 0.28906,-0.78125 1.02343,-1.875 z m -1.25781,6.11718 q -1,0 -1.71094,0.71094 -0.70313,0.70313 -0.70313,1.71094 0,1 0.70313,1.71094 0.71094,0.70312 1.71094,0.70312 1,0 1.70312,-0.70312 0.71094,-0.71094 0.71094,-1.71094 0,-1.00781 -0.71094,-1.71094 -0.70312,-0.71094 -1.70312,-0.71094 z"
       style="font-weight:400;font-size:16px;font-family:'Century Gothic', 'Century Gothic_MSFontService', sans-serif;fill:#ffffff;stroke-width:1"
       id="path1692" />
    <path
       d="m 100.81919,123.60566 h 0.23438 v 8.00781 h 1.39062 v 1.10156 h -1.39062 v 2.67188 h -1.14844 v -2.67188 h -5.49219 z m -0.91406,8.00781 v -4.78906 l -3.38281,4.78906 z"
       style="font-weight:400;font-size:16px;font-family:'Century Gothic', 'Century Gothic_MSFontService', sans-serif;fill:#ffffff;stroke-width:1"
       id="path1694" />
    <path
       d="m 152.2262,108.38691 h 128 v 38 h -128 z"
       style="fill:#1b8ec9;stroke-width:1"
       id="rect1564" />
    <path
       d="m 186.77493,123.89472 5.35938,11.49219 h -1.23438 l -1.80468,-3.78125 h -4.95313 l -1.79687,3.78125 H 181.064 l 5.42968,-11.49219 z m -0.14062,2.4375 -1.97656,4.16406 h 3.92968 z"
       style="font-weight:400;font-size:16px;font-family:'Century Gothic', 'Century Gothic_MSFontService', sans-serif;fill:#ffffff;stroke-width:1"
       id="path1698" />
    <path
       d="m 193.98587,123.89472 h 2.28906 q 1.91407,0 2.59375,0.15625 1.02344,0.23437 1.66407,1.00781 0.64062,0.76563 0.64062,1.89063 0,0.9375 -0.44531,1.64843 -0.4375,0.71094 -1.25781,1.07813 -0.82032,0.35937 -2.26563,0.36719 l 4.13281,5.34375 h -1.42187 l -4.125,-5.34375 h -0.65625 v 5.34375 h -1.14844 z m 1.14844,1.125 v 3.90625 l 1.97656,0.0156 q 1.14844,0 1.69531,-0.21875 0.55469,-0.21875 0.85938,-0.69531 0.3125,-0.48437 0.3125,-1.07812 0,-0.57813 -0.3125,-1.04688 -0.3125,-0.47656 -0.82031,-0.67969 -0.50782,-0.20312 -1.6875,-0.20312 z"
       style="font-weight:400;font-size:16px;font-family:'Century Gothic', 'Century Gothic_MSFontService', sans-serif;fill:#ffffff;stroke-width:1"
       id="path1700" />
    <path
       d="m 203.11868,135.38691 1.63282,-11.49219 h 0.1875 l 4.67187,9.42969 4.625,-9.42969 h 0.1875 l 1.64844,11.49219 H 214.939 l -1.125,-8.21875 -4.0625,8.21875 h -0.28907 l -4.11718,-8.28125 -1.11719,8.28125 z"
       style="font-weight:400;font-size:16px;font-family:'Century Gothic', 'Century Gothic_MSFontService', sans-serif;fill:#ffffff;stroke-width:1"
       id="path1702" />
    <path
       d="m 217.3765,126.88691 h 1.16406 l 2.84375,6.1875 2.82031,-6.1875 h 1.17188 l -3.89063,8.5 h -0.19531 z"
       style="font-weight:400;font-size:16px;font-family:'Century Gothic', 'Century Gothic_MSFontService', sans-serif;fill:#ffffff;stroke-width:1"
       id="path1704" />
    <path
       d="m 231.98587,129.08222 q 1.16406,0.57812 1.66406,1.32031 0.50782,0.74219 0.50782,1.6875 0,1.32813 -0.86719,2.34375 -1.0625,1.24219 -3.03906,1.24219 -1.90625,0 -2.89063,-1.08594 -0.98437,-1.09375 -0.98437,-2.40625 0,-0.96094 0.51562,-1.72656 0.51563,-0.77344 1.71875,-1.375 -0.84375,-0.4375 -1.26562,-1.08594 -0.42188,-0.64844 -0.42188,-1.39062 0,-0.75 0.44531,-1.46094 0.45313,-0.71875 1.24219,-1.125 0.79688,-0.41406 1.71875,-0.41406 0.89844,0 1.66406,0.41406 0.76563,0.41406 1.19532,1.125 0.4375,0.71094 0.4375,1.49219 0,0.78125 -0.41407,1.39062 -0.40625,0.60938 -1.22656,1.05469 z m -1.71094,-4.35938 q -0.94531,0 -1.57031,0.5625 -0.61719,0.55469 -0.61719,1.32813 0,0.76562 0.66407,1.39062 0.67187,0.61719 1.5625,0.61719 0.57031,0 1.07812,-0.28125 0.50781,-0.28125 0.78906,-0.76562 0.28907,-0.49219 0.28907,-0.98438 0,-0.69531 -0.5625,-1.28125 -0.5625,-0.58594 -1.63282,-0.58594 z m 0.0547,4.9375 q -1.1875,0 -1.99219,0.77344 -0.80468,0.76563 -0.80468,1.78906 0,0.63282 0.34375,1.19532 0.34375,0.5625 0.96093,0.86718 0.61719,0.30469 1.42969,0.30469 1.25781,0 2,-0.74219 0.74219,-0.74218 0.74219,-1.73437 0,-0.96094 -0.78906,-1.70313 -0.78125,-0.75 -1.89063,-0.75 z"
       style="font-weight:400;font-size:16px;font-family:'Century Gothic', 'Century Gothic_MSFontService', sans-serif;fill:#ffffff;stroke-width:1"
       id="path1706" />
    <path
       d="m 235.22025,130.59003 h 4.29687 v 0.95313 h -4.29687 z"
       style="font-weight:400;font-size:16px;font-family:'Century Gothic', 'Century Gothic_MSFontService', sans-serif;fill:#ffffff;stroke-width:1"
       id="path1708" />
    <path
       d="m 246.11868,123.89472 5.35938,11.49219 h -1.23438 l -1.80468,-3.78125 h -4.95313 l -1.79687,3.78125 h -1.28125 l 5.42968,-11.49219 z m -0.14062,2.4375 -1.97656,4.16406 h 3.92968 z"
       style="font-weight:400;font-size:16px;font-family:'Century Gothic', 'Century Gothic_MSFontService', sans-serif;fill:#ffffff;stroke-width:1"
       id="path1710" />
    <path
       d="m 291.22619,108.38691 h 127 v 38 h -127 z"
       style="fill:#1b8ec9;stroke-width:1"
       id="rect1568" />
    <path
       d="m 327.43284,123.89472 h 2.28904 q 1.96876,0 2.65626,0.17187 0.98435,0.24219 1.60935,1 0.625,0.75 0.625,1.89063 0,1.14844 -0.60936,1.89844 -0.60936,0.74218 -1.67968,1 -0.78126,0.1875 -2.92188,0.1875 h -0.82031 v 5.34375 h -1.14842 z m 1.14842,1.11719 v 3.90625 l 1.94532,0.0234 q 1.17967,0 1.72654,-0.21093 0.5469,-0.21875 0.85939,-0.69532 0.3125,-0.48437 0.3125,-1.07812 0,-0.57813 -0.3125,-1.05469 -0.31249,-0.48437 -0.82811,-0.6875 -0.50782,-0.20312 -1.67191,-0.20312 z"
       style="font-weight:400;font-size:16px;font-family:'Century Gothic', 'Century Gothic_MSFontService', sans-serif;fill:#ffffff;stroke-width:1"
       id="path1714" />
    <path
       d="m 342.38595,123.60566 q 2.60937,0 4.36718,1.74218 1.75782,1.74219 1.75782,4.28907 0,2.52343 -1.75782,4.28125 -1.75,1.75781 -4.27344,1.75781 -2.55468,0 -4.3125,-1.75 -1.75781,-1.75 -1.75781,-4.23438 0,-1.65625 0.79687,-3.07031 0.80468,-1.41406 2.1875,-2.21094 1.38282,-0.80468 2.9922,-0.80468 z m 0.0547,1.125 q -1.27344,0 -2.41406,0.66406 -1.14062,0.66406 -1.78125,1.78906 -0.64061,1.125 -0.64061,2.50781 0,2.04688 1.41404,3.46094 1.42189,1.40625 3.42188,1.40625 1.33593,0 2.46875,-0.64844 1.14061,-0.64843 1.77344,-1.77343 0.64061,-1.125 0.64061,-2.5 0,-1.36719 -0.64061,-2.46875 -0.63283,-1.10938 -1.78905,-1.77344 -1.15626,-0.66406 -2.45314,-0.66406 z"
       style="font-weight:400;font-size:16px;font-family:'Century Gothic', 'Century Gothic_MSFontService', sans-serif;fill:#ffffff;stroke-width:1"
       id="path1716" />
    <path
       d="m 350.16719,123.89472 h 1.17969 l 2.33596,8.28125 3.29686,-8.28125 h 0.23437 l 3.25782,8.28125 2.38281,-8.28125 h 1.17186 l -3.29686,11.49219 h -0.21876 l -3.40625,-8.69532 -3.47657,8.69532 h -0.21873 z"
       style="font-weight:400;font-size:16px;font-family:'Century Gothic', 'Century Gothic_MSFontService', sans-serif;fill:#ffffff;stroke-width:1"
       id="path1718" />
    <path
       d="m 366.19845,123.89472 h 6.58593 v 1.13281 h -5.43751 v 3.59375 h 5.39062 v 1.125 h -5.39062 v 4.50781 h 5.39062 v 1.13282 h -6.53904 z"
       style="font-weight:400;font-size:16px;font-family:'Century Gothic', 'Century Gothic_MSFontService', sans-serif;fill:#ffffff;stroke-width:1"
       id="path1720" />
    <path
       d="m 374.84688,123.89472 h 2.28907 q 1.91405,0 2.59374,0.15625 1.02343,0.23437 1.66407,1.00781 0.64064,0.76563 0.64064,1.89063 0,0.9375 -0.44532,1.64843 -0.43752,0.71094 -1.25783,1.07813 -0.82032,0.35937 -2.2656,0.36719 l 4.13279,5.34375 h -1.42187 l -4.12499,-5.34375 h -0.65625 v 5.34375 h -1.14845 z m 1.14845,1.125 v 3.90625 l 1.97655,0.0156 q 1.14845,0 1.69532,-0.21875 0.55469,-0.21875 0.85936,-0.69531 0.3125,-0.48437 0.3125,-1.07812 0,-0.57813 -0.3125,-1.04688 -0.3125,-0.47656 -0.82031,-0.67969 -0.50782,-0.20312 -1.68749,-0.20312 z"
       style="font-weight:400;font-size:16px;font-family:'Century Gothic', 'Century Gothic_MSFontService', sans-serif;fill:#ffffff;stroke-width:1"
       id="path1722" />
    <path
       d="M 5.2261896,158.38691 H 132.22619 v 39 H 5.2261896 Z"
       style="fill:#0b3868;stroke-width:1"
       id="rect1572" />
    <path
       d="m 61.75725,177.88691 h 1.10157 v 6.77344 q 0,1.78906 -0.31251,2.61719 -0.42968,1.17187 -1.49218,1.80469 -1.0625,0.63281 -2.55469,0.63281 -1.09375,0 -1.96875,-0.3125 -0.86719,-0.30469 -1.41406,-0.82813 -0.54688,-0.51562 -1.00781,-1.51562 h 1.1875 q 0.48437,0.84375 1.25,1.25 0.76562,0.40625 1.89843,0.40625 1.11719,0 1.88282,-0.42188 0.77343,-0.41406 1.10156,-1.04687 0.32812,-0.63281 0.32812,-2.03906 v -0.4375 q -0.61718,0.78125 -1.50781,1.20312 -0.89062,0.41406 -1.89062,0.41406 -1.17188,0 -2.20313,-0.57812 -1.03125,-0.58594 -1.59375,-1.57031 -0.5625,-0.98438 -0.5625,-2.16407 0,-1.17968 0.58594,-2.19531 0.58594,-1.02344 1.61719,-1.61719 1.03906,-0.59375 2.1875,-0.59375 0.95312,0 1.77343,0.39844 0.82813,0.39063 1.59375,1.29688 z m -3.22656,0.83594 q -0.92969,0 -1.72656,0.45313 -0.79688,0.44531 -1.25,1.24218 -0.45313,0.78907 -0.45313,1.71094 0,1.39844 0.9375,2.3125 0.9375,0.91406 2.42969,0.91406 1.50781,0 2.42188,-0.90625 0.92187,-0.90625 0.92187,-2.38281 0,-0.96094 -0.42187,-1.71094 -0.42188,-0.75781 -1.19532,-1.19531 -0.77343,-0.4375 -1.66406,-0.4375 z"
       style="font-weight:400;font-size:16px;font-family:'Century Gothic', 'Century Gothic_MSFontService', sans-serif;fill:#ffffff;stroke-width:1"
       id="path1726" />
    <path
       d="m 73.46819,179.65254 -0.86718,0.53906 q -1.125,-1.49219 -3.07032,-1.49219 -1.55469,0 -2.58594,1 -1.02343,1 -1.02343,2.42969 0,0.92969 0.46875,1.75 0.47656,0.82031 1.29687,1.27344 0.82813,0.45312 1.85156,0.45312 1.87501,0 3.06251,-1.49218 l 0.86718,0.57031 q -0.60937,0.91406 -1.64062,1.42187 -1.02344,0.5 -2.33594,0.5 -2.01562,0 -3.34375,-1.28125 -1.32812,-1.28125 -1.32812,-3.11718 0,-1.23438 0.61718,-2.28907 0.625,-1.0625 1.71094,-1.65625 1.08594,-0.59375 2.42969,-0.59375 0.84375,0 1.625,0.25782 0.78906,0.25781 1.33593,0.67187 0.54688,0.41406 0.92969,1.05469 z"
       style="font-weight:400;font-size:16px;font-family:'Century Gothic', 'Century Gothic_MSFontService', sans-serif;fill:#ffffff;stroke-width:1"
       id="path1728" />
    <path
       d="m 83.81194,179.65254 -0.86719,0.53906 q -1.12499,-1.49219 -3.07031,-1.49219 -1.55469,0 -2.58594,1 -1.02343,1 -1.02343,2.42969 0,0.92969 0.46875,1.75 0.47656,0.82031 1.29687,1.27344 0.82813,0.45312 1.85156,0.45312 1.875,0 3.0625,-1.49218 l 0.86719,0.57031 q -0.60937,0.91406 -1.64062,1.42187 -1.02344,0.5 -2.33594,0.5 -2.01563,0 -3.34375,-1.28125 -1.32813,-1.28125 -1.32813,-3.11718 0,-1.23438 0.61719,-2.28907 0.625,-1.0625 1.71094,-1.65625 1.08594,-0.59375 2.42969,-0.59375 0.84375,0 1.625,0.25782 0.78906,0.25781 1.33593,0.67187 0.54688,0.41406 0.92969,1.05469 z"
       style="font-weight:400;font-size:16px;font-family:'Century Gothic', 'Century Gothic_MSFontService', sans-serif;fill:#ffffff;stroke-width:1"
       id="path1730" />
    <path
       d="m 143.2262,158.38691 h 128.00001 v 39 H 143.2262 Z"
       style="fill:#0b3868;stroke-width:1"
       id="rect1576" />
    <path
       d="m 194.29794,179.65254 -0.86718,0.53906 q -1.125,-1.49219 -3.07032,-1.49219 -1.55468,0 -2.58593,1 -1.02344,1 -1.02344,2.42969 0,0.92969 0.46875,1.75 0.47656,0.82031 1.29687,1.27344 0.82813,0.45312 1.85157,0.45312 1.875,0 3.0625,-1.49218 l 0.86718,0.57031 q -0.60937,0.91406 -1.64062,1.42187 -1.02344,0.5 -2.33594,0.5 -2.01562,0 -3.34375,-1.28125 -1.32812,-1.28125 -1.32812,-3.11718 0,-1.23438 0.61718,-2.28907 0.625,-1.0625 1.71094,-1.65625 1.08594,-0.59375 2.42969,-0.59375 0.84375,0 1.625,0.25782 0.78906,0.25781 1.33594,0.67187 0.54687,0.41406 0.92968,1.05469 z"
       style="font-weight:400;font-size:16px;font-family:'Century Gothic', 'Century Gothic_MSFontService', sans-serif;fill:#ffffff;stroke-width:1"
       id="path1734" />
    <path
       d="m 196.22763,174.60566 h 1.09375 v 11.78125 h -1.09375 z"
       style="font-weight:400;font-size:16px;font-family:'Century Gothic', 'Century Gothic_MSFontService', sans-serif;fill:#ffffff;stroke-width:1"
       id="path1736" />
    <path
       d="m 208.07919,177.88691 v 8.5 h -1.07812 v -1.46093 q -0.6875,0.83593 -1.54688,1.25781 -0.85156,0.42187 -1.86718,0.42187 -1.80469,0 -3.08594,-1.30468 -1.27344,-1.3125 -1.27344,-3.1875 0,-1.83594 1.28906,-3.14063 1.28907,-1.30469 3.10157,-1.30469 1.04687,0 1.89062,0.44532 0.85156,0.44531 1.49219,1.33593 v -1.5625 z m -4.375,0.83594 q -0.91406,0 -1.6875,0.45313 -0.77343,0.44531 -1.23437,1.25781 -0.45313,0.8125 -0.45313,1.71875 0,0.89844 0.46094,1.71875 0.46094,0.82031 1.23438,1.28125 0.78125,0.45312 1.67187,0.45312 0.89844,0 1.70313,-0.45312 0.80468,-0.45313 1.23437,-1.22656 0.4375,-0.77344 0.4375,-1.74219 0,-1.47656 -0.97656,-2.46875 -0.96875,-0.99219 -2.39063,-0.99219 z"
       style="font-weight:400;font-size:16px;font-family:'Century Gothic', 'Century Gothic_MSFontService', sans-serif;fill:#ffffff;stroke-width:1"
       id="path1738" />
    <path
       d="m 210.54794,177.88691 h 1.09375 v 1.52344 q 0.65625,-0.875 1.45313,-1.30469 0.79687,-0.4375 1.73437,-0.4375 0.95313,0 1.6875,0.48438 0.74219,0.48437 1.09375,1.30469 0.35157,0.82031 0.35157,2.55468 v 4.375 h -1.08594 v -4.05468 q 0,-1.46875 -0.125,-1.96094 -0.19531,-0.84375 -0.73438,-1.26563 -0.53906,-0.42968 -1.40625,-0.42968 -0.99218,0 -1.78125,0.65625 -0.78125,0.65625 -1.03125,1.625 -0.15625,0.63281 -0.15625,2.3125 v 3.11718 h -1.09375 z"
       style="font-weight:400;font-size:16px;font-family:'Century Gothic', 'Century Gothic_MSFontService', sans-serif;fill:#ffffff;stroke-width:1"
       id="path1740" />
    <path
       d="m 227.61826,177.88691 h 1.10156 v 6.77344 q 0,1.78906 -0.3125,2.61719 -0.42969,1.17187 -1.49219,1.80469 -1.0625,0.63281 -2.55469,0.63281 -1.09375,0 -1.96875,-0.3125 -0.86718,-0.30469 -1.41406,-0.82813 -0.54687,-0.51562 -1.00781,-1.51562 h 1.1875 q 0.48437,0.84375 1.25,1.25 0.76562,0.40625 1.89844,0.40625 1.11718,0 1.88281,-0.42188 0.77344,-0.41406 1.10156,-1.04687 0.32813,-0.63281 0.32813,-2.03906 v -0.4375 q -0.61719,0.78125 -1.50782,1.20312 -0.89062,0.41406 -1.89062,0.41406 -1.17188,0 -2.20313,-0.57812 -1.03125,-0.58594 -1.59375,-1.57031 -0.5625,-0.98438 -0.5625,-2.16407 0,-1.17968 0.58594,-2.19531 0.58594,-1.02344 1.61719,-1.61719 1.03906,-0.59375 2.1875,-0.59375 0.95312,0 1.77344,0.39844 0.82812,0.39063 1.59375,1.29688 z m -3.22657,0.83594 q -0.92968,0 -1.72656,0.45313 -0.79687,0.44531 -1.25,1.24218 -0.45312,0.78907 -0.45312,1.71094 0,1.39844 0.9375,2.3125 0.9375,0.91406 2.42968,0.91406 1.50782,0 2.42188,-0.90625 0.92187,-0.90625 0.92187,-2.38281 0,-0.96094 -0.42187,-1.71094 -0.42188,-0.75781 -1.19531,-1.19531 -0.77344,-0.4375 -1.66407,-0.4375 z"
       style="font-weight:400;font-size:16px;font-family:'Century Gothic', 'Century Gothic_MSFontService', sans-serif;fill:#ffffff;stroke-width:1"
       id="path1742" />
    <path
       d="m 282.22618,158.38691 h 127 v 39 h -127 z"
       style="fill:#0b3868;stroke-width:1"
       id="rect1580" />
    <path
       d="m 335.54176,174.38691 q 0.37499,0 0.64064,0.26563 0.26561,0.26562 0.26561,0.64062 0,0.36719 -0.26561,0.63282 -0.26565,0.26562 -0.64064,0.26562 -0.36719,0 -0.6328,-0.26562 -0.26562,-0.26563 -0.26562,-0.63282 0,-0.375 0.26562,-0.64062 0.26561,-0.26563 0.6328,-0.26563 z m -0.54687,3.5 h 1.10157 v 8.5 h -1.10157 z"
       style="font-weight:400;font-size:16px;font-family:'Century Gothic', 'Century Gothic_MSFontService', sans-serif;fill:#ffffff;stroke-width:1"
       id="path1746" />
    <path
       d="m 346.6277,179.65254 -0.86718,0.53906 q -1.125,-1.49219 -3.07033,-1.49219 -1.55469,0 -2.58593,1 -1.02343,1 -1.02343,2.42969 0,0.92969 0.46876,1.75 0.47657,0.82031 1.29685,1.27344 0.82815,0.45312 1.85158,0.45312 1.875,0 3.0625,-1.49218 l 0.86718,0.57031 q -0.60937,0.91406 -1.64061,1.42187 -1.02346,0.5 -2.33595,0.5 -2.01562,0 -3.34375,-1.28125 -1.32813,-1.28125 -1.32813,-3.11718 0,-1.23438 0.61719,-2.28907 0.625,-1.0625 1.71093,-1.65625 1.08596,-0.59375 2.4297,-0.59375 0.84375,0 1.62502,0.25782 0.78904,0.25781 1.3359,0.67187 0.5469,0.41406 0.9297,1.05469 z"
       style="font-weight:400;font-size:16px;font-family:'Century Gothic', 'Century Gothic_MSFontService', sans-serif;fill:#ffffff;stroke-width:1"
       id="path1748" />
    <path
       d="m 356.97145,179.65254 -0.8672,0.53906 q -1.12498,-1.49219 -3.0703,-1.49219 -1.5547,0 -2.58594,1 -1.02343,1 -1.02343,2.42969 0,0.92969 0.46876,1.75 0.47654,0.82031 1.29686,1.27344 0.82814,0.45312 1.85155,0.45312 1.87502,0 3.0625,-1.49218 l 0.8672,0.57031 q -0.60936,0.91406 -1.64063,1.42187 -1.02343,0.5 -2.33593,0.5 -2.01562,0 -3.34375,-1.28125 -1.32813,-1.28125 -1.32813,-3.11718 0,-1.23438 0.6172,-2.28907 0.625,-1.0625 1.71093,-1.65625 1.08595,-0.59375 2.42969,-0.59375 0.84376,0 1.62499,0.25782 0.78907,0.25781 1.33594,0.67187 0.54689,0.41406 0.92969,1.05469 z"
       style="font-weight:400;font-size:16px;font-family:'Century Gothic', 'Century Gothic_MSFontService', sans-serif;fill:#ffffff;stroke-width:1"
       id="path1750" />
    <path
       d="m 29.22619,200.38691 h 127 v 39 h -127 z"
       style="fill:#0b3868;stroke-width:1"
       id="rect1584" />
    <path
       d="m 82.46819,219.88691 h 1.3125 l 2.25,3.14844 2.25,-3.14844 h 1.3125 l -2.90625,4.03907 3.27344,4.46093 h -1.32813 l -2.60156,-3.57031 -2.5625,3.57031 H 82.1635 l 3.21875,-4.46093 z"
       style="font-weight:400;font-size:16px;font-family:'Century Gothic', 'Century Gothic_MSFontService', sans-serif;fill:#ffffff;stroke-width:1"
       id="path1754" />
    <path
       d="m 90.96037,216.60566 h 1.09375 v 11.78125 h -1.09375 z"
       style="font-weight:400;font-size:16px;font-family:'Century Gothic', 'Century Gothic_MSFontService', sans-serif;fill:#ffffff;stroke-width:1"
       id="path1756" />
    <path
       d="m 102.59319,221.65254 -0.86719,0.53906 q -1.125,-1.49219 -3.07031,-1.49219 -1.55469,0 -2.58594,1 -1.02344,1 -1.02344,2.42969 0,0.92969 0.46875,1.75 0.47656,0.82031 1.29688,1.27344 0.82812,0.45312 1.85156,0.45312 1.875,0 3.0625,-1.49218 l 0.86719,0.57031 q -0.60938,0.91406 -1.64063,1.42187 -1.02344,0.5 -2.33594,0.5 -2.01562,0 -3.34374,-1.28125 -1.32813,-1.28125 -1.32813,-3.11718 0,-1.23438 0.61719,-2.28907 0.625,-1.0625 1.71094,-1.65625 1.08593,-0.59375 2.42968,-0.59375 0.84375,0 1.625,0.25782 0.78907,0.25781 1.33594,0.67187 0.54688,0.41406 0.92969,1.05469 z"
       style="font-weight:400;font-size:16px;font-family:'Century Gothic', 'Century Gothic_MSFontService', sans-serif;fill:#ffffff;stroke-width:1"
       id="path1758" />
    <path
       d="m 167.2262,200.38691 h 127.99999 v 39 H 167.2262 Z"
       style="fill:#0b3868;stroke-width:1"
       id="rect1588" />
    <path
       d="m 211.43857,219.88691 h 1.08594 v 1.5625 q 0.64843,-0.89062 1.49218,-1.33593 0.84375,-0.44532 1.88282,-0.44532 1.8125,0 3.10156,1.30469 1.28906,1.30469 1.28906,3.14063 0,1.875 -1.28125,3.1875 -1.27344,1.30468 -3.07812,1.30468 -1.01563,0 -1.86719,-0.42187 -0.85156,-0.42188 -1.53906,-1.25781 v 4.57031 h -1.08594 z m 4.375,0.83594 q -1.42188,0 -2.39844,0.99219 -0.96875,0.99219 -0.96875,2.46875 0,0.96875 0.42969,1.74219 0.4375,0.77343 1.24219,1.22656 0.8125,0.45312 1.71093,0.45312 0.88282,0 1.65625,-0.45312 0.78125,-0.46094 1.24219,-1.28125 0.46094,-0.82031 0.46094,-1.71875 0,-0.90625 -0.46094,-1.71875 -0.45312,-0.8125 -1.22656,-1.25781 -0.77344,-0.45313 -1.6875,-0.45313 z"
       style="font-weight:400;font-size:16px;font-family:'Century Gothic', 'Century Gothic_MSFontService', sans-serif;fill:#ffffff;stroke-width:1"
       id="path1762" />
    <path
       d="m 229.64951,219.88691 h 1.10156 v 6.77344 q 0,1.78906 -0.3125,2.61719 -0.42969,1.17187 -1.49219,1.80469 -1.0625,0.63281 -2.55469,0.63281 -1.09375,0 -1.96875,-0.3125 -0.86718,-0.30469 -1.41406,-0.82813 -0.54687,-0.51562 -1.00781,-1.51562 h 1.1875 q 0.48437,0.84375 1.25,1.25 0.76562,0.40625 1.89844,0.40625 1.11718,0 1.88281,-0.42188 0.77344,-0.41406 1.10156,-1.04687 0.32813,-0.63281 0.32813,-2.03906 v -0.4375 q -0.61719,0.78125 -1.50782,1.20312 -0.89062,0.41406 -1.89062,0.41406 -1.17188,0 -2.20313,-0.57812 -1.03125,-0.58594 -1.59375,-1.57031 -0.5625,-0.98438 -0.5625,-2.16407 0,-1.17968 0.58594,-2.19531 0.58594,-1.02344 1.61719,-1.61719 1.03906,-0.59375 2.1875,-0.59375 0.95312,0 1.77344,0.39844 0.82812,0.39063 1.59375,1.29688 z m -3.22657,0.83594 q -0.92968,0 -1.72656,0.45313 -0.79687,0.44531 -1.25,1.24218 -0.45312,0.78907 -0.45312,1.71094 0,1.39844 0.9375,2.3125 0.9375,0.91406 2.42968,0.91406 1.50782,0 2.42188,-0.90625 0.92187,-0.90625 0.92187,-2.38281 0,-0.96094 -0.42187,-1.71094 -0.42188,-0.75781 -1.19531,-1.19531 -0.77344,-0.4375 -1.66407,-0.4375 z"
       style="font-weight:400;font-size:16px;font-family:'Century Gothic', 'Century Gothic_MSFontService', sans-serif;fill:#ffffff;stroke-width:1"
       id="path1764" />
    <path
       d="m 241.36044,221.65254 -0.86718,0.53906 q -1.125,-1.49219 -3.07032,-1.49219 -1.55468,0 -2.58593,1 -1.02344,1 -1.02344,2.42969 0,0.92969 0.46875,1.75 0.47656,0.82031 1.29687,1.27344 0.82813,0.45312 1.85157,0.45312 1.875,0 3.0625,-1.49218 l 0.86718,0.57031 q -0.60937,0.91406 -1.64062,1.42187 -1.02344,0.5 -2.33594,0.5 -2.01562,0 -3.34375,-1.28125 -1.32812,-1.28125 -1.32812,-3.11718 0,-1.23438 0.61718,-2.28907 0.625,-1.0625 1.71094,-1.65625 1.08594,-0.59375 2.42969,-0.59375 0.84375,0 1.625,0.25782 0.78906,0.25781 1.33594,0.67187 0.54687,0.41406 0.92968,1.05469 z"
       style="font-weight:400;font-size:16px;font-family:'Century Gothic', 'Century Gothic_MSFontService', sans-serif;fill:#ffffff;stroke-width:1"
       id="path1766" />
    <path
       d="m 251.70419,221.65254 -0.86718,0.53906 q -1.125,-1.49219 -3.07032,-1.49219 -1.55468,0 -2.58593,1 -1.02344,1 -1.02344,2.42969 0,0.92969 0.46875,1.75 0.47656,0.82031 1.29687,1.27344 0.82813,0.45312 1.85157,0.45312 1.875,0 3.0625,-1.49218 l 0.86718,0.57031 q -0.60937,0.91406 -1.64062,1.42187 -1.02344,0.5 -2.33594,0.5 -2.01562,0 -3.34375,-1.28125 -1.32812,-1.28125 -1.32812,-3.11718 0,-1.23438 0.61718,-2.28907 0.625,-1.0625 1.71094,-1.65625 1.08594,-0.59375 2.42969,-0.59375 0.84375,0 1.625,0.25782 0.78906,0.25781 1.33594,0.67187 0.54687,0.41406 0.92968,1.05469 z"
       style="font-weight:400;font-size:16px;font-family:'Century Gothic', 'Century Gothic_MSFontService', sans-serif;fill:#ffffff;stroke-width:1"
       id="path1768" />
    <path
       d="m 306.22619,200.38691 h 127 v 39 h -127 z"
       style="fill:#0b3868;stroke-width:1"
       id="rect1592" />
    <path
       d="m 352.18238,220.8166 -0.70313,0.72656 q -0.875,-0.85156 -1.71092,-0.85156 -0.53123,0 -0.91406,0.35156 -0.37499,0.35157 -0.37499,0.82032 0,0.41406 0.3125,0.78906 0.3125,0.38281 1.31249,0.89844 1.21875,0.63281 1.65624,1.21875 0.42971,0.59375 0.42971,1.33593 0,1.04688 -0.73438,1.77344 -0.73438,0.72656 -1.83594,0.72656 -0.73438,0 -1.40627,-0.32031 -0.66405,-0.32031 -1.10154,-0.88281 l 0.6875,-0.78125 q 0.83592,0.94531 1.77342,0.94531 0.65625,0 1.1172,-0.42187 0.46093,-0.42188 0.46093,-0.99219 0,-0.46875 -0.30469,-0.83594 -0.30469,-0.35937 -1.37499,-0.90625 -1.14845,-0.59375 -1.56252,-1.17187 -0.41405,-0.57813 -0.41405,-1.32032 0,-0.96875 0.65625,-1.60937 0.66405,-0.64063 1.67188,-0.64063 1.17186,0 2.35936,1.14844 z"
       style="font-weight:400;font-size:16px;font-family:'Century Gothic', 'Century Gothic_MSFontService', sans-serif;fill:#ffffff;stroke-width:1"
       id="path1772" />
    <path
       d="m 353.98708,219.88691 h 1.10157 v 3.96875 q 0,1.45313 0.15623,2 0.23437,0.78125 0.89064,1.23438 0.66406,0.45312 1.57811,0.45312 0.91408,0 1.54689,-0.4375 0.64063,-0.44531 0.88281,-1.16406 0.16406,-0.49219 0.16406,-2.08594 v -3.96875 h 1.11718 v 4.17188 q 0,1.75781 -0.41404,2.64844 -0.40627,0.89062 -1.23439,1.39843 -0.82032,0.5 -2.06251,0.5 -1.24216,0 -2.07812,-0.5 -0.82811,-0.50781 -1.24219,-1.40625 -0.40624,-0.90625 -0.40624,-2.71875 z"
       style="font-weight:400;font-size:16px;font-family:'Century Gothic', 'Century Gothic_MSFontService', sans-serif;fill:#ffffff;stroke-width:1"
       id="path1774" />
    <path
       d="m 363.84646,219.88691 h 1.09374 v 1.52344 q 0.65624,-0.875 1.45314,-1.30469 0.79687,-0.4375 1.73437,-0.4375 0.95314,0 1.68749,0.48438 0.74221,0.48437 1.09376,1.30469 0.35155,0.82031 0.35155,2.55468 v 4.375 h -1.08593 v -4.05468 q 0,-1.46875 -0.12499,-1.96094 -0.19531,-0.84375 -0.73438,-1.26563 -0.53906,-0.42968 -1.40626,-0.42968 -0.99218,0 -1.78125,0.65625 -0.78124,0.65625 -1.03124,1.625 -0.15626,0.63281 -0.15626,2.3125 v 3.11718 h -1.09374 z"
       style="font-weight:400;font-size:16px;font-family:'Century Gothic', 'Century Gothic_MSFontService', sans-serif;fill:#ffffff;stroke-width:1"
       id="path1776" />
    <path
       d="m 381.84646,221.65254 -0.8672,0.53906 q -1.125,-1.49219 -3.0703,-1.49219 -1.55469,0 -2.58596,1 -1.02341,1 -1.02341,2.42969 0,0.92969 0.46874,1.75 0.47657,0.82031 1.29688,1.27344 0.82812,0.45312 1.85156,0.45312 1.87499,0 3.06249,-1.49218 l 0.8672,0.57031 q -0.60939,0.91406 -1.64063,1.42187 -1.02343,0.5 -2.33595,0.5 -2.01562,0 -3.34372,-1.28125 -1.32816,-1.28125 -1.32816,-3.11718 0,-1.23438 0.61719,-2.28907 0.625,-1.0625 1.71096,-1.65625 1.08593,-0.59375 2.42969,-0.59375 0.84373,0 1.625,0.25782 0.78906,0.25781 1.33593,0.67187 0.54687,0.41406 0.92969,1.05469 z"
       style="font-weight:400;font-size:16px;font-family:'Century Gothic', 'Century Gothic_MSFontService', sans-serif;fill:#ffffff;stroke-width:1"
       id="path1778" />
    <path
       d="m 392.19022,221.65254 -0.8672,0.53906 q -1.12501,-1.49219 -3.07031,-1.49219 -1.55469,0 -2.58596,1 -1.0234,1 -1.0234,2.42969 0,0.92969 0.46873,1.75 0.47657,0.82031 1.29688,1.27344 0.82812,0.45312 1.85156,0.45312 1.87499,0 3.0625,-1.49218 l 0.8672,0.57031 q -0.60939,0.91406 -1.64063,1.42187 -1.02344,0.5 -2.33596,0.5 -2.01562,0 -3.34375,-1.28125 -1.32813,-1.28125 -1.32813,-3.11718 0,-1.23438 0.6172,-2.28907 0.625,-1.0625 1.71095,-1.65625 1.08593,-0.59375 2.4297,-0.59375 0.84373,0 1.62499,0.25782 0.78907,0.25781 1.33593,0.67187 0.54687,0.41406 0.9297,1.05469 z"
       style="font-weight:400;font-size:16px;font-family:'Century Gothic', 'Century Gothic_MSFontService', sans-serif;fill:#ffffff;stroke-width:1"
       id="path1780" />
    <path
       d="m 60.22619,242.38691 h 128 v 38 h -128 z"
       style="fill:#0b3868;stroke-width:1"
       id="rect1596" />
    <path
       d="m 95.77469,261.8869 v 8.5 h -1.07812 v -1.46094 q -0.6875,0.83594 -1.54688,1.25781 -0.85156,0.42188 -1.86719,0.42188 -1.80468,0 -3.08593,-1.30469 -1.27344,-1.3125 -1.27344,-3.1875 0,-1.83594 1.28906,-3.14062 1.28906,-1.30469 3.10156,-1.30469 1.04688,0 1.89063,0.44531 0.85156,0.44531 1.49219,1.33594 v -1.5625 z m -4.375,0.83594 q -0.91406,0 -1.6875,0.45312 -0.77344,0.44531 -1.23437,1.25781 -0.45313,0.8125 -0.45313,1.71875 0,0.89844 0.46094,1.71875 0.46094,0.82032 1.23437,1.28125 0.78125,0.45313 1.67188,0.45313 0.89844,0 1.70312,-0.45313 0.80469,-0.45312 1.23438,-1.22656 0.4375,-0.77344 0.4375,-1.74219 0,-1.47656 -0.97656,-2.46875 -0.96875,-0.99218 -2.39063,-0.99218 z"
       style="font-weight:400;font-size:16px;font-family:'Century Gothic', 'Century Gothic_MSFontService', sans-serif;fill:#ffffff;stroke-width:1"
       id="path1784" />
    <path
       d="m 97.82938,261.8869 h 1.11719 v 1.24219 q 0.5,-0.73438 1.05468,-1.09375 0.55469,-0.36719 1.15625,-0.36719 0.45313,0 0.96875,0.28906 l -0.57031,0.92188 q -0.34375,-0.14844 -0.57812,-0.14844 -0.54688,0 -1.05469,0.45312 -0.50781,0.44532 -0.77344,1.39063 -0.20312,0.72656 -0.20312,2.9375 v 2.875 h -1.11719 z"
       style="font-weight:400;font-size:16px;font-family:'Century Gothic', 'Century Gothic_MSFontService', sans-serif;fill:#ffffff;stroke-width:1"
       id="path1786" />
    <path
       d="m 103.04813,261.8869 h 1.08594 v 1.46875 q 0.57031,-0.8125 1.17187,-1.1875 0.82812,-0.5 1.74219,-0.5 0.61718,0 1.17187,0.24219 0.55469,0.24218 0.90625,0.64843 0.35156,0.39844 0.60938,1.14844 0.54687,-1 1.36718,-1.51562 0.82032,-0.52344 1.76563,-0.52344 0.88281,0 1.55469,0.44531 0.67968,0.44531 1.00781,1.24219 0.32812,0.79687 0.32812,2.39062 v 4.64063 h -1.11718 v -4.64063 q 0,-1.36718 -0.19532,-1.875 -0.19531,-0.51562 -0.67187,-0.82812 -0.46875,-0.3125 -1.125,-0.3125 -0.79688,0 -1.46094,0.46875 -0.65625,0.46875 -0.96094,1.25 -0.30468,0.78125 -0.30468,2.60937 v 3.32813 h -1.08594 v -4.35156 q 0,-1.53907 -0.19531,-2.08594 -0.1875,-0.55469 -0.66407,-0.88281 -0.47656,-0.33594 -1.13281,-0.33594 -0.75781,0 -1.42187,0.46094 -0.65625,0.45312 -0.97657,1.22656 -0.31249,0.77344 -0.31249,2.36719 v 3.60156 h -1.08594 z"
       style="font-weight:400;font-size:16px;font-family:'Century Gothic', 'Century Gothic_MSFontService', sans-serif;fill:#ffffff;stroke-width:1"
       id="path1788" />
    <path
       d="m 126.30594,263.65252 -0.86719,0.53907 q -1.125,-1.49219 -3.07031,-1.49219 -1.55469,0 -2.58594,1 -1.02344,1 -1.02344,2.42969 0,0.92968 0.46875,1.75 0.47657,0.82031 1.29688,1.27343 0.82812,0.45313 1.85156,0.45313 1.875,0 3.0625,-1.49219 l 0.86719,0.57031 q -0.60938,0.91407 -1.64063,1.42188 -1.02343,0.5 -2.33593,0.5 -2.01563,0 -3.34375,-1.28125 -1.32813,-1.28125 -1.32813,-3.11719 0,-1.23437 0.61719,-2.28906 0.625,-1.0625 1.71094,-1.65625 1.08593,-0.59375 2.42968,-0.59375 0.84375,0 1.625,0.25781 0.78907,0.25781 1.33594,0.67188 0.54688,0.41406 0.92969,1.05468 z"
       style="font-weight:400;font-size:16px;font-family:'Century Gothic', 'Century Gothic_MSFontService', sans-serif;fill:#ffffff;stroke-width:1"
       id="path1790" />
    <path
       d="m 128.23563,258.60565 h 1.09375 v 11.78125 h -1.09375 z"
       style="font-weight:400;font-size:16px;font-family:'Century Gothic', 'Century Gothic_MSFontService', sans-serif;fill:#ffffff;stroke-width:1"
       id="path1792" />
    <path
       d="m 140.08719,261.8869 v 8.5 h -1.07813 v -1.46094 q -0.6875,0.83594 -1.54687,1.25781 -0.85156,0.42188 -1.86719,0.42188 -1.80469,0 -3.08594,-1.30469 -1.27343,-1.3125 -1.27343,-3.1875 0,-1.83594 1.28906,-3.14062 1.28906,-1.30469 3.10156,-1.30469 1.04688,0 1.89063,0.44531 0.85156,0.44531 1.49218,1.33594 v -1.5625 z m -4.375,0.83594 q -0.91406,0 -1.6875,0.45312 -0.77344,0.44531 -1.23438,1.25781 -0.45312,0.8125 -0.45312,1.71875 0,0.89844 0.46094,1.71875 0.46093,0.82032 1.23437,1.28125 0.78125,0.45313 1.67188,0.45313 0.89843,0 1.70312,-0.45313 0.80469,-0.45312 1.23438,-1.22656 0.4375,-0.77344 0.4375,-1.74219 0,-1.47656 -0.97657,-2.46875 -0.96875,-0.99218 -2.39062,-0.99218 z"
       style="font-weight:400;font-size:16px;font-family:'Century Gothic', 'Century Gothic_MSFontService', sans-serif;fill:#ffffff;stroke-width:1"
       id="path1794" />
    <path
       d="m 142.55594,261.8869 h 1.09375 v 1.52344 q 0.65625,-0.875 1.45312,-1.30469 0.79688,-0.4375 1.73438,-0.4375 0.95312,0 1.6875,0.48437 0.74219,0.48438 1.09375,1.30469 0.35156,0.82031 0.35156,2.55469 v 4.375 h -1.08594 v -4.05469 q 0,-1.46875 -0.125,-1.96094 -0.19531,-0.84375 -0.73437,-1.26562 -0.53906,-0.42969 -1.40625,-0.42969 -0.99219,0 -1.78125,0.65625 -0.78125,0.65625 -1.03125,1.625 -0.15625,0.63281 -0.15625,2.3125 v 3.11719 h -1.09375 z"
       style="font-weight:400;font-size:16px;font-family:'Century Gothic', 'Century Gothic_MSFontService', sans-serif;fill:#ffffff;stroke-width:1"
       id="path1796" />
    <path
       d="m 159.62625,261.8869 h 1.10156 v 6.77344 q 0,1.78906 -0.3125,2.61718 -0.42968,1.17188 -1.49218,1.80469 -1.0625,0.63281 -2.55469,0.63281 -1.09375,0 -1.96875,-0.3125 -0.86719,-0.30467 -1.41406,-0.82812 -0.54688,-0.51563 -1.00782,-1.51563 h 1.1875 q 0.48438,0.84375 1.25,1.25 0.76563,0.40625 1.89844,0.40625 1.11719,0 1.88281,-0.42187 0.77344,-0.41406 1.10157,-1.04688 0.32812,-0.63281 0.32812,-2.03906 v -0.4375 q -0.61719,0.78125 -1.50781,1.20313 -0.89063,0.41406 -1.89063,0.41406 -1.17187,0 -2.20312,-0.57813 -1.03125,-0.58593 -1.59375,-1.57031 -0.5625,-0.98437 -0.5625,-2.16406 0,-1.17969 0.58594,-2.19531 0.58593,-1.02344 1.61718,-1.61719 1.03907,-0.59375 2.1875,-0.59375 0.95313,0 1.77344,0.39844 0.82813,0.39062 1.59375,1.29687 z m -3.22656,0.83594 q -0.92969,0 -1.72656,0.45312 -0.79688,0.44531 -1.25,1.24219 -0.45313,0.78906 -0.45313,1.71094 0,1.39843 0.9375,2.3125 0.9375,0.91406 2.42969,0.91406 1.50781,0 2.42187,-0.90625 0.92188,-0.90625 0.92188,-2.38281 0,-0.96094 -0.42188,-1.71094 -0.42187,-0.75781 -1.19531,-1.19531 -0.77344,-0.4375 -1.66406,-0.4375 z"
       style="font-weight:400;font-size:16px;font-family:'Century Gothic', 'Century Gothic_MSFontService', sans-serif;fill:#ffffff;stroke-width:1"
       id="path1798" />
    <path
       d="m 45.22619,54.386909 h 166 v 38 h -166 z"
       style="fill:#8bc7e4;stroke-width:1"
       id="rect1600" />
    <path
       d="m 98.37263,69.894709 h 5.75781 v 1.13282 h -4.61718 v 3.59375 h 4.61718 v 1.13281 h -4.61718 v 5.63281 h -1.14063 z"
       style="font-weight:400;font-size:16px;font-family:'Century Gothic', 'Century Gothic_MSFontService', sans-serif;fill:#ffffff;stroke-width:1"
       id="path1802" />
    <path
       d="m 105.52888,72.886899 h 1.11719 v 1.24219 q 0.5,-0.73437 1.05468,-1.09375 0.55469,-0.36719 1.15625,-0.36719 0.45313,0 0.96875,0.28906 l -0.57031,0.92188 q -0.34375,-0.14844 -0.57812,-0.14844 -0.54688,0 -1.05469,0.45313 -0.50781,0.44531 -0.77344,1.39062 -0.20312,0.72657 -0.20312,2.9375 v 2.875 h -1.11719 z"
       style="font-weight:400;font-size:16px;font-family:'Century Gothic', 'Century Gothic_MSFontService', sans-serif;fill:#ffffff;stroke-width:1"
       id="path1804" />
    <path
       d="m 117.91169,78.566589 0.92188,0.48437 q -0.45313,0.89063 -1.04688,1.4375 -0.59375,0.54688 -1.33594,0.83594 -0.74218,0.28125 -1.67968,0.28125 -2.07813,0 -3.25,-1.35937 -1.17188,-1.36719 -1.17188,-3.08594 0,-1.61719 0.99219,-2.88281 1.25781,-1.60938 3.36719,-1.60938 2.17187,0 3.46875,1.64844 0.92187,1.16406 0.9375,2.90625 h -7.64063 q 0.0312,1.48438 0.94531,2.4375 0.91407,0.94531 2.25782,0.94531 0.64843,0 1.25781,-0.22656 0.61719,-0.22656 1.04687,-0.60156 0.42969,-0.375 0.92969,-1.21094 z m 0,-2.28906 q -0.21875,-0.875 -0.64062,-1.39844 -0.41407,-0.52344 -1.10157,-0.84375 -0.6875,-0.32031 -1.44531,-0.32031 -1.25,0 -2.14844,0.80469 -0.65625,0.58593 -0.99218,1.75781 z"
       style="font-weight:400;font-size:16px;font-family:'Century Gothic', 'Century Gothic_MSFontService', sans-serif;fill:#ffffff;stroke-width:1"
       id="path1806" />
    <path
       d="m 128.31794,78.566589 0.92188,0.48437 q -0.45313,0.89063 -1.04688,1.4375 -0.59375,0.54688 -1.33594,0.83594 -0.74218,0.28125 -1.67968,0.28125 -2.07813,0 -3.25,-1.35937 -1.17188,-1.36719 -1.17188,-3.08594 0,-1.61719 0.99219,-2.88281 1.25781,-1.60938 3.36719,-1.60938 2.17187,0 3.46875,1.64844 0.92187,1.16406 0.9375,2.90625 h -7.64063 q 0.0312,1.48438 0.94531,2.4375 0.91407,0.94531 2.25782,0.94531 0.64843,0 1.25781,-0.22656 0.61719,-0.22656 1.04687,-0.60156 0.42969,-0.375 0.92969,-1.21094 z m 0,-2.28906 q -0.21875,-0.875 -0.64062,-1.39844 -0.41407,-0.52344 -1.10157,-0.84375 -0.6875,-0.32031 -1.44531,-0.32031 -1.25,0 -2.14844,0.80469 -0.65625,0.58593 -0.99218,1.75781 z"
       style="font-weight:400;font-size:16px;font-family:'Century Gothic', 'Century Gothic_MSFontService', sans-serif;fill:#ffffff;stroke-width:1"
       id="path1808" />
    <path
       d="m 131.77888,69.894709 h 2.26562 q 1.36719,0 2.10157,0.32813 0.73437,0.32031 1.15625,0.99219 0.42968,0.67187 0.42968,1.49218 0,0.76563 -0.375,1.39844 -0.375,0.625 -1.10156,1.01563 0.89844,0.30468 1.38281,0.71875 0.48438,0.40625 0.75,0.99218 0.27344,0.57813 0.27344,1.25782 0,1.38281 -1.01562,2.34375 -1.00782,0.95312 -2.71094,0.95312 h -3.15625 z m 1.125,1.12501 v 3.67968 h 0.65625 q 1.19531,0 1.75781,-0.21875 0.5625,-0.22656 0.89063,-0.70312 0.32812,-0.48438 0.32812,-1.07032 0,-0.78906 -0.55469,-1.23437 -0.54687,-0.45312 -1.75,-0.45312 z m 0,4.83593 v 4.40625 h 1.42187 q 1.25782,0 1.84375,-0.24218 0.58594,-0.25 0.9375,-0.77344 0.35938,-0.52344 0.35938,-1.13282 0,-0.76562 -0.5,-1.33593 -0.5,-0.57031 -1.375,-0.78125 -0.58594,-0.14063 -2.03906,-0.14063 z"
       style="font-weight:400;font-size:16px;font-family:'Century Gothic', 'Century Gothic_MSFontService', sans-serif;fill:#ffffff;stroke-width:1"
       id="path1810" />
    <path
       d="m 139.74763,79.246279 0.97656,-0.58594 q 1.03125,1.89844 2.38281,1.89844 0.57813,0 1.08594,-0.26563 0.50781,-0.27343 0.77344,-0.72656 0.26562,-0.45313 0.26562,-0.96094 0,-0.57812 -0.39062,-1.13281 -0.53906,-0.76563 -1.96875,-1.84375 -1.4375,-1.08594 -1.78906,-1.57031 -0.60938,-0.8125 -0.60938,-1.75781 0,-0.75001 0.35938,-1.36719 0.35937,-0.61719 1.00781,-0.96875 0.65625,-0.35938 1.42187,-0.35938 0.8125,0 1.51563,0.40625 0.71094,0.39844 1.5,1.47656 l -0.9375,0.71094 q -0.64844,-0.85937 -1.10938,-1.13281 -0.45312,-0.27344 -0.99218,-0.27344 -0.69532,0 -1.14063,0.42188 -0.4375,0.42187 -0.4375,1.03906 0,0.375 0.15625,0.72656 0.15625,0.35157 0.57031,0.76563 0.22657,0.21875 1.48438,1.14844 1.49219,1.10156 2.04687,1.96093 0.55469,0.85938 0.55469,1.72657 0,1.25 -0.95312,2.17187 -0.94532,0.92187 -2.30469,0.92187 -1.04688,0 -1.89844,-0.55468 -0.85156,-0.5625 -1.57031,-1.875 z"
       style="font-weight:400;font-size:16px;font-family:'Century Gothic', 'Century Gothic_MSFontService', sans-serif;fill:#ffffff;stroke-width:1"
       id="path1812" />
    <path
       d="m 148.90388,81.386899 v -11.49219 h 2.38281 q 2.57813,0 3.74219,0.41407 1.67187,0.58594 2.60937,2.03125 0.94532,1.44531 0.94532,3.44531 0,1.72656 -0.75,3.03906 -0.74219,1.3125 -1.9375,1.9375 -1.1875,0.625 -3.33594,0.625 z m 1.10156,-1.08593 h 1.32813 q 2.38281,0 3.30468,-0.29688 1.29688,-0.42187 2.03907,-1.51562 0.74218,-1.10157 0.74218,-2.6875 0,-1.66407 -0.80468,-2.84376 -0.80469,-1.17968 -2.24219,-1.61718 -1.07813,-0.32813 -3.55469,-0.32813 h -0.8125 z"
       style="font-weight:400;font-size:16px;font-family:'Century Gothic', 'Century Gothic_MSFontService', sans-serif;fill:#ffffff;stroke-width:1"
       id="path1814" />
    <path
       d="m 45.22619,8.3869088 h 166 V 46.386909 h -166 z"
       style="fill:#8bc7e4;stroke-width:1"
       id="rect1604" />
    <path
       d="m 77.20075,27.027529 -0.90625,0.69531 q -0.75,-0.97656 -1.80468,-1.47656 -1.04688,-0.50781 -2.30469,-0.50781 -1.375,0 -2.54688,0.66406 -1.17187,0.65625 -1.82031,1.77344 -0.64062,1.10937 -0.64062,2.5 0,2.10156 1.4375,3.50781 1.44531,1.40625 3.64062,1.40625 2.41406,0 4.03906,-1.89062 l 0.90625,0.6875 q -0.85937,1.09375 -2.14843,1.69531 -1.28125,0.59375 -2.86719,0.59375 -3.01562,0 -4.75781,-2.00781 -1.46094,-1.69532 -1.46094,-4.09375 0,-2.52344 1.76563,-4.24219 1.77343,-1.72656 4.43749,-1.72656 1.60938,0 2.90625,0.64062 1.29688,0.63281 2.125,1.78125 z"
       style="font-weight:400;font-size:16px;font-family:'Century Gothic', 'Century Gothic_MSFontService', sans-serif;fill:#ffffff;stroke-width:1"
       id="path1818" />
    <path
       d="m 86.47419,33.566589 0.92188,0.48438 q -0.45313,0.89062 -1.04688,1.4375 -0.59375,0.54687 -1.33593,0.83594 -0.74219,0.28125 -1.67969,0.28125 -2.07813,0 -3.25,-1.35938 -1.17188,-1.36719 -1.17188,-3.08594 0,-1.61718 0.99219,-2.88281 1.25781,-1.60937 3.36719,-1.60937 2.17187,0 3.46875,1.64843 0.92187,1.16407 0.9375,2.90625 h -7.64063 q 0.0312,1.48438 0.94532,2.4375 0.91406,0.94532 2.25781,0.94532 0.64843,0 1.25781,-0.22657 0.61719,-0.22656 1.04687,-0.60156 0.42969,-0.375 0.92969,-1.21094 z m 0,-2.28906 q -0.21875,-0.875 -0.64062,-1.39844 -0.41407,-0.52343 -1.10157,-0.84375 -0.6875,-0.32031 -1.44531,-0.32031 -1.25,0 -2.14843,0.80469 -0.65626,0.58594 -0.99219,1.75781 z"
       style="font-weight:400;font-size:16px;font-family:'Century Gothic', 'Century Gothic_MSFontService', sans-serif;fill:#ffffff;stroke-width:1"
       id="path1820" />
    <path
       d="m 89.72419,27.886909 h 1.09375 v 1.52343 q 0.65625,-0.875 1.45313,-1.30468 0.79687,-0.4375 1.73437,-0.4375 0.95313,0 1.6875,0.48437 0.74219,0.48438 1.09375,1.30469 0.35156,0.82031 0.35156,2.55469 v 4.375 h -1.08593 v -4.05469 q 0,-1.46875 -0.125,-1.96094 -0.19532,-0.84375 -0.73438,-1.26562 -0.53906,-0.42969 -1.40625,-0.42969 -0.99218,0 -1.78125,0.65625 -0.78125,0.65625 -1.03125,1.625 -0.15625,0.63281 -0.15625,2.3125 v 3.11719 h -1.09375 z"
       style="font-weight:400;font-size:16px;font-family:'Century Gothic', 'Century Gothic_MSFontService', sans-serif;fill:#ffffff;stroke-width:1"
       id="path1822" />
    <path
       d="m 100.42732,24.730659 h 1.10156 v 3.15625 h 1.73438 v 0.9375 h -1.73438 v 7.5625 h -1.10156 v -7.5625 h -1.49219 v -0.9375 h 1.49219 z"
       style="font-weight:400;font-size:16px;font-family:'Century Gothic', 'Century Gothic_MSFontService', sans-serif;fill:#ffffff;stroke-width:1"
       id="path1824" />
    <path
       d="m 110.56794,24.605659 q 2.60938,0 4.36719,1.74218 1.75781,1.74219 1.75781,4.28907 0,2.52343 -1.75781,4.28125 -1.75,1.75781 -4.27344,1.75781 -2.55469,0 -4.3125,-1.75 -1.75781,-1.75 -1.75781,-4.23438 0,-1.65625 0.79687,-3.07031 0.80469,-1.41406 2.1875,-2.21094 1.38282,-0.80468 2.99219,-0.80468 z m 0.0547,1.125 q -1.27344,0 -2.41406,0.66406 -1.14063,0.66406 -1.78125,1.78906 -0.64063,1.125 -0.64063,2.50781 0,2.04688 1.41406,3.46094 1.42188,1.40625 3.42188,1.40625 1.33594,0 2.46875,-0.64844 1.14062,-0.64843 1.77344,-1.77343 0.64062,-1.125 0.64062,-2.5 0,-1.36719 -0.64062,-2.46875 -0.63282,-1.10938 -1.78907,-1.77344 -1.15625,-0.66406 -2.45312,-0.66406 z"
       style="font-weight:400;font-size:16px;font-family:'Century Gothic', 'Century Gothic_MSFontService', sans-serif;fill:#ffffff;stroke-width:1"
       id="path1826" />
    <path
       d="m 117.81013,34.246279 0.97656,-0.58594 q 1.03125,1.89844 2.38281,1.89844 0.57813,0 1.08594,-0.26562 0.50781,-0.27344 0.77344,-0.72657 0.26562,-0.45312 0.26562,-0.96093 0,-0.57813 -0.39062,-1.13282 -0.53906,-0.76562 -1.96875,-1.84375 -1.4375,-1.08593 -1.78906,-1.57031 -0.60938,-0.8125 -0.60938,-1.75781 0,-0.75 0.35938,-1.36719 0.35937,-0.61719 1.00781,-0.96875 0.65625,-0.35937 1.42187,-0.35937 0.8125,0 1.51563,0.40625 0.71094,0.39843 1.5,1.47656 l -0.9375,0.71094 q -0.64844,-0.85938 -1.10938,-1.13282 -0.45312,-0.27343 -0.99218,-0.27343 -0.69532,0 -1.14063,0.42187 -0.4375,0.42188 -0.4375,1.03906 0,0.375 0.15625,0.72657 0.15625,0.35156 0.57031,0.76562 0.22657,0.21875 1.48438,1.14844 1.49219,1.10156 2.04687,1.96094 0.55469,0.85937 0.55469,1.72656 0,1.25 -0.95312,2.17187 -0.94532,0.92188 -2.30469,0.92188 -1.04688,0 -1.89844,-0.55469 -0.85156,-0.5625 -1.57031,-1.875 z"
       style="font-weight:400;font-size:16px;font-family:'Century Gothic', 'Century Gothic_MSFontService', sans-serif;fill:#ffffff;stroke-width:1"
       id="path1828" />
    <path
       d="m 132.09919,24.605659 -4.77344,13.34375 h -1.19531 l 4.76563,-13.34375 z"
       style="font-weight:400;font-size:16px;font-family:'Century Gothic', 'Century Gothic_MSFontService', sans-serif;fill:#ffffff;stroke-width:1"
       id="path1830" />
    <path
       d="m 134.02888,24.894719 h 2.28906 q 1.91406,0 2.59375,0.15625 1.02344,0.23437 1.66406,1.00781 0.64063,0.76563 0.64063,1.89063 0,0.9375 -0.44531,1.64843 -0.4375,0.71094 -1.25782,1.07813 -0.82031,0.35937 -2.26562,0.36719 l 4.13281,5.34375 h -1.42187 l -4.125,-5.34375 h -0.65625 v 5.34375 h -1.14844 z m 1.14844,1.125 v 3.90625 l 1.97656,0.0156 q 1.14844,0 1.69531,-0.21875 0.55469,-0.21875 0.85938,-0.69531 0.3125,-0.48438 0.3125,-1.07813 0,-0.57812 -0.3125,-1.04687 -0.3125,-0.47657 -0.82032,-0.67969 -0.50781,-0.20313 -1.6875,-0.20313 z"
       style="font-weight:400;font-size:16px;font-family:'Century Gothic', 'Century Gothic_MSFontService', sans-serif;fill:#ffffff;stroke-width:1"
       id="path1832" />
    <path
       d="m 150.66169,33.566589 0.92188,0.48438 q -0.45313,0.89062 -1.04688,1.4375 -0.59375,0.54687 -1.33594,0.83594 -0.74218,0.28125 -1.67968,0.28125 -2.07813,0 -3.25,-1.35938 -1.17188,-1.36719 -1.17188,-3.08594 0,-1.61718 0.99219,-2.88281 1.25781,-1.60937 3.36719,-1.60937 2.17187,0 3.46875,1.64843 0.92187,1.16407 0.9375,2.90625 h -7.64063 q 0.0312,1.48438 0.94531,2.4375 0.91407,0.94532 2.25782,0.94532 0.64843,0 1.25781,-0.22657 0.61719,-0.22656 1.04687,-0.60156 0.42969,-0.375 0.92969,-1.21094 z m 0,-2.28906 q -0.21875,-0.875 -0.64062,-1.39844 -0.41407,-0.52343 -1.10157,-0.84375 -0.6875,-0.32031 -1.44531,-0.32031 -1.25,0 -2.14844,0.80469 -0.65625,0.58594 -0.99218,1.75781 z"
       style="font-weight:400;font-size:16px;font-family:'Century Gothic', 'Century Gothic_MSFontService', sans-serif;fill:#ffffff;stroke-width:1"
       id="path1834" />
    <path
       d="m 162.39607,24.605659 v 11.78125 h -1.07813 v -1.46094 q -0.6875,0.83594 -1.54687,1.25781 -0.85157,0.42188 -1.86719,0.42188 -1.80469,0 -3.08594,-1.30469 -1.27344,-1.3125 -1.27344,-3.1875 0,-1.83594 1.28907,-3.14063 1.28906,-1.30468 3.10156,-1.30468 1.04687,0 1.89062,0.44531 0.85157,0.44531 1.49219,1.33594 v -4.84375 z m -4.375,4.11718 q -0.91407,0 -1.6875,0.45313 -0.77344,0.44531 -1.23438,1.25781 -0.45312,0.8125 -0.45312,1.71875 0,0.89844 0.46093,1.71875 0.46094,0.82031 1.23438,1.28125 0.78125,0.45313 1.67187,0.45313 0.89844,0 1.70313,-0.45313 0.80469,-0.45312 1.23437,-1.22656 0.4375,-0.77344 0.4375,-1.74219 0,-1.47656 -0.97656,-2.46875 -0.96875,-0.99219 -2.39062,-0.99219 z"
       style="font-weight:400;font-size:16px;font-family:'Century Gothic', 'Century Gothic_MSFontService', sans-serif;fill:#ffffff;stroke-width:1"
       id="path1836" />
    <path
       d="m 165.0445,24.894719 h 1.15625 v 4.82031 h 5.84375 v -4.82031 h 1.15625 v 11.49219 h -1.15625 v -5.54688 h -5.84375 v 5.54688 h -1.15625 z"
       style="font-weight:400;font-size:16px;font-family:'Century Gothic', 'Century Gothic_MSFontService', sans-serif;fill:#ffffff;stroke-width:1"
       id="path1838" />
    <path
       d="m 184.28669,27.886909 v 8.5 h -1.07812 v -1.46094 q -0.6875,0.83594 -1.54688,1.25781 -0.85156,0.42188 -1.86719,0.42188 -1.80468,0 -3.08593,-1.30469 -1.27344,-1.3125 -1.27344,-3.1875 0,-1.83594 1.28906,-3.14063 1.28906,-1.30468 3.10156,-1.30468 1.04688,0 1.89063,0.44531 0.85156,0.44531 1.49219,1.33594 v -1.5625 z m -4.375,0.83593 q -0.91406,0 -1.6875,0.45313 -0.77344,0.44531 -1.23437,1.25781 -0.45313,0.8125 -0.45313,1.71875 0,0.89844 0.46094,1.71875 0.46094,0.82031 1.23437,1.28125 0.78125,0.45313 1.67188,0.45313 0.89844,0 1.70312,-0.45313 0.80469,-0.45312 1.23438,-1.22656 0.4375,-0.77344 0.4375,-1.74219 0,-1.47656 -0.97656,-2.46875 -0.96875,-0.99219 -2.39063,-0.99219 z"
       style="font-weight:400;font-size:16px;font-family:'Century Gothic', 'Century Gothic_MSFontService', sans-serif;fill:#ffffff;stroke-width:1"
       id="path1840" />
    <path
       d="m 187.70857,24.730659 h 1.10156 v 3.15625 h 1.73437 v 0.9375 h -1.73437 v 7.5625 h -1.10156 v -7.5625 h -1.49219 v -0.9375 h 1.49219 z"
       style="font-weight:400;font-size:16px;font-family:'Century Gothic', 'Century Gothic_MSFontService', sans-serif;fill:#ffffff;stroke-width:1"
       id="path1842" />
    <path
       d="M 220.2262,8.3869088 H 386.22622 V 46.386909 H 220.2262 Z"
       style="fill:#8bc7e4;stroke-width:1"
       id="rect1608" />
    <path
       d="m 244.01869,24.894719 h 1.14844 v 6.9375 q 0,1.23437 0.0469,1.53906 0.0859,0.67969 0.39843,1.14063 0.3125,0.45312 0.96094,0.76562 0.64844,0.30469 1.30469,0.30469 0.57031,0 1.09375,-0.24219 0.52344,-0.24219 0.875,-0.67187 0.35156,-0.42969 0.51562,-1.03907 0.11719,-0.4375 0.11719,-1.79687 v -6.9375 h 1.14844 v 6.9375 q 0,1.53906 -0.30469,2.49219 -0.29687,0.94531 -1.20312,1.64843 -0.89844,0.70313 -2.17969,0.70313 -1.39063,0 -2.38281,-0.66406 -0.99219,-0.66407 -1.32813,-1.75782 -0.21094,-0.67187 -0.21094,-2.42187 z"
       style="font-weight:400;font-size:16px;font-family:'Century Gothic', 'Century Gothic_MSFontService', sans-serif;fill:#ffffff;stroke-width:1"
       id="path1846" />
    <path
       d="m 254.33901,36.386909 v -11.78125 h 1.08593 v 4.74218 q 0.6875,-0.84375 1.53907,-1.25781 0.85156,-0.42187 1.86718,-0.42187 1.80469,0 3.07813,1.3125 1.28125,1.30468 1.28125,3.17187 0,1.84375 -1.28906,3.14844 -1.28907,1.30469 -3.10157,1.30469 -1.03906,0 -1.88281,-0.44532 -0.84375,-0.44531 -1.49219,-1.33593 v 1.5625 z m 4.375,-0.83594 q 0.91406,0 1.6875,-0.44531 0.77343,-0.45313 1.22656,-1.26563 0.46094,-0.8125 0.46094,-1.71875 0,-0.90625 -0.46094,-1.72656 -0.46094,-0.82031 -1.24219,-1.27344 -0.77344,-0.46094 -1.65625,-0.46094 -0.89844,0 -1.71094,0.46094 -0.80468,0.45313 -1.24218,1.22656 -0.42969,0.77344 -0.42969,1.74219 0,1.47656 0.96875,2.46875 0.97656,0.99219 2.39844,0.99219 z"
       style="font-weight:400;font-size:16px;font-family:'Century Gothic', 'Century Gothic_MSFontService', sans-serif;fill:#ffffff;stroke-width:1"
       id="path1848" />
    <path
       d="m 265.03432,27.886909 h 1.10156 v 3.96875 q 0,1.45312 0.15625,2 0.23438,0.78125 0.89063,1.23437 0.66406,0.45313 1.57812,0.45313 0.91406,0 1.54688,-0.4375 0.64064,-0.44532 0.88281,-1.16407 0.16407,-0.49218 0.16407,-2.08593 v -3.96875 h 1.11717 v 4.17187 q 0,1.75781 -0.41404,2.64844 -0.40624,0.89062 -1.23439,1.39844 -0.82031,0.5 -2.0625,0.5 -1.24219,0 -2.07812,-0.5 -0.82813,-0.50782 -1.24219,-1.40625 -0.40625,-0.90625 -0.40625,-2.71875 z"
       style="font-weight:400;font-size:16px;font-family:'Century Gothic', 'Century Gothic_MSFontService', sans-serif;fill:#ffffff;stroke-width:1"
       id="path1850" />
    <path
       d="m 274.8937,27.886909 h 1.09374 v 1.52343 q 0.65624,-0.875 1.45314,-1.30468 0.79687,-0.4375 1.73437,-0.4375 0.95311,0 1.68749,0.48437 0.74218,0.48438 1.09376,1.30469 0.35155,0.82031 0.35155,2.55469 v 4.375 h -1.08593 v -4.05469 q 0,-1.46875 -0.12499,-1.96094 -0.19531,-0.84375 -0.73437,-1.26562 -0.53907,-0.42969 -1.40626,-0.42969 -0.99219,0 -1.78126,0.65625 -0.78123,0.65625 -1.03124,1.625 -0.15626,0.63281 -0.15626,2.3125 v 3.11719 h -1.09374 z"
       style="font-weight:400;font-size:16px;font-family:'Century Gothic', 'Century Gothic_MSFontService', sans-serif;fill:#ffffff;stroke-width:1"
       id="path1852" />
    <path
       d="m 285.59681,24.730659 h 1.10157 v 3.15625 h 1.73437 v 0.9375 h -1.73437 v 7.5625 h -1.10157 v -7.5625 h -1.49217 v -0.9375 h 1.49217 z"
       style="font-weight:400;font-size:16px;font-family:'Century Gothic', 'Century Gothic_MSFontService', sans-serif;fill:#ffffff;stroke-width:1"
       id="path1854" />
    <path
       d="m 289.94058,27.886909 h 1.10154 v 3.96875 q 0,1.45312 0.15627,2 0.23436,0.78125 0.89061,1.23437 0.66408,0.45313 1.57813,0.45313 0.91406,0 1.54689,-0.4375 0.64061,-0.44532 0.88281,-1.16407 0.16404,-0.49218 0.16404,-2.08593 v -3.96875 h 1.1172 v 4.17187 q 0,1.75781 -0.41407,2.64844 -0.40624,0.89062 -1.23436,1.39844 -0.82031,0.5 -2.06251,0.5 -1.24219,0 -2.07811,-0.5 -0.82815,-0.50782 -1.24219,-1.40625 -0.40625,-0.90625 -0.40625,-2.71875 z"
       style="font-weight:400;font-size:16px;font-family:'Century Gothic', 'Century Gothic_MSFontService', sans-serif;fill:#ffffff;stroke-width:1"
       id="path1856" />
    <path
       d="m 305.11245,24.605659 -4.77345,13.34375 h -1.19531 l 4.76562,-13.34375 z"
       style="font-weight:400;font-size:16px;font-family:'Century Gothic', 'Century Gothic_MSFontService', sans-serif;fill:#ffffff;stroke-width:1"
       id="path1858" />
    <path
       d="m 306.97965,36.386909 v -11.49219 h 2.38281 q 2.57812,0 3.74218,0.41406 1.67188,0.58594 2.60938,2.03125 0.9453,1.44531 0.9453,3.44531 0,1.72657 -0.74999,3.03907 -0.74221,1.3125 -1.93751,1.9375 -1.18751,0.625 -3.33592,0.625 z m 1.10153,-1.08594 h 1.32813 q 2.38281,0 3.3047,-0.29688 1.29688,-0.42187 2.03907,-1.51562 0.74218,-1.10156 0.74218,-2.6875 0,-1.66406 -0.80468,-2.84375 -0.8047,-1.17969 -2.24221,-1.61719 -1.0781,-0.32812 -3.55468,-0.32812 h -0.81251 z"
       style="font-weight:400;font-size:16px;font-family:'Century Gothic', 'Century Gothic_MSFontService', sans-serif;fill:#ffffff;stroke-width:1"
       id="path1860" />
    <path
       d="m 325.86245,33.566589 0.92187,0.48438 q -0.45313,0.89062 -1.04688,1.4375 -0.59375,0.54687 -1.33593,0.83594 -0.74219,0.28125 -1.67969,0.28125 -2.07814,0 -3.25001,-1.35938 -1.17186,-1.36719 -1.17186,-3.08594 0,-1.61718 0.99219,-2.88281 1.2578,-1.60937 3.36719,-1.60937 2.17186,0 3.46874,1.64843 0.92186,1.16407 0.9375,2.90625 h -7.64064 q 0.0312,1.48438 0.94533,2.4375 0.91406,0.94532 2.25782,0.94532 0.64844,0 1.25781,-0.22657 0.61719,-0.22656 1.04687,-0.60156 0.42969,-0.375 0.92969,-1.21094 z m 0,-2.28906 q -0.21875,-0.875 -0.64063,-1.39844 -0.41405,-0.52343 -1.10157,-0.84375 -0.68749,-0.32031 -1.44531,-0.32031 -1.25,0 -2.14842,0.80469 -0.65627,0.58594 -0.99218,1.75781 z"
       style="font-weight:400;font-size:16px;font-family:'Century Gothic', 'Century Gothic_MSFontService', sans-serif;fill:#ffffff;stroke-width:1"
       id="path1862" />
    <path
       d="m 329.18276,36.386909 v -11.78125 h 1.08593 v 4.74218 q 0.6875,-0.84375 1.53908,-1.25781 0.85157,-0.42187 1.86717,-0.42187 1.8047,0 3.07814,1.3125 1.28124,1.30468 1.28124,3.17187 0,1.84375 -1.28905,3.14844 -1.28908,1.30469 -3.10158,1.30469 -1.03907,0 -1.8828,-0.44532 -0.84376,-0.44531 -1.4922,-1.33593 v 1.5625 z m 4.375,-0.83594 q 0.91405,0 1.68751,-0.44531 0.77343,-0.45313 1.22655,-1.26563 0.46093,-0.8125 0.46093,-1.71875 0,-0.90625 -0.46093,-1.72656 -0.46093,-0.82031 -1.24219,-1.27344 -0.77343,-0.46094 -1.65624,-0.46094 -0.89844,0 -1.71095,0.46094 -0.80468,0.45313 -1.24217,1.22656 -0.42971,0.77344 -0.42971,1.74219 0,1.47656 0.96877,2.46875 0.97655,0.99219 2.39843,0.99219 z"
       style="font-weight:400;font-size:16px;font-family:'Century Gothic', 'Century Gothic_MSFontService', sans-serif;fill:#ffffff;stroke-width:1"
       id="path1864" />
    <path
       d="m 340.40152,24.386909 q 0.37499,0 0.64061,0.26562 0.26564,0.26563 0.26564,0.64063 0,0.36718 -0.26564,0.63281 -0.26562,0.26562 -0.64061,0.26562 -0.36719,0 -0.63283,-0.26562 -0.26561,-0.26563 -0.26561,-0.63281 0,-0.375 0.26561,-0.64063 0.26564,-0.26562 0.63283,-0.26562 z m -0.54689,3.5 h 1.10156 v 8.5 h -1.10156 z"
       style="font-weight:400;font-size:16px;font-family:'Century Gothic', 'Century Gothic_MSFontService', sans-serif;fill:#ffffff;stroke-width:1"
       id="path1866" />
    <path
       d="m 351.70619,27.886909 v 8.5 h -1.07813 v -1.46094 q -0.68749,0.83594 -1.54686,1.25781 -0.85156,0.42188 -1.86719,0.42188 -1.80469,0 -3.08594,-1.30469 -1.27344,-1.3125 -1.27344,-3.1875 0,-1.83594 1.28905,-3.14063 1.28908,-1.30468 3.10158,-1.30468 1.04688,0 1.89063,0.44531 0.85156,0.44531 1.49217,1.33594 v -1.5625 z m -4.37499,0.83593 q -0.91406,0 -1.68752,0.45313 -0.77343,0.44531 -1.23436,1.25781 -0.45312,0.8125 -0.45312,1.71875 0,0.89844 0.46093,1.71875 0.46096,0.82031 1.23439,1.28125 0.78123,0.45313 1.67187,0.45313 0.89845,0 1.70312,-0.45313 0.80468,-0.45312 1.23436,-1.22656 0.43752,-0.77344 0.43752,-1.74219 0,-1.47656 -0.97658,-2.46875 -0.96874,-0.99219 -2.39061,-0.99219 z"
       style="font-weight:400;font-size:16px;font-family:'Century Gothic', 'Century Gothic_MSFontService', sans-serif;fill:#ffffff;stroke-width:1"
       id="path1868" />
    <path
       d="m 354.17494,27.886909 h 1.09376 v 1.52343 q 0.65624,-0.875 1.45311,-1.30468 0.79688,-0.4375 1.73437,-0.4375 0.95314,0 1.68752,0.48437 0.74218,0.48438 1.09373,1.30469 0.35158,0.82031 0.35158,2.55469 v 4.375 h -1.08593 v -4.05469 q 0,-1.46875 -0.12501,-1.96094 -0.19529,-0.84375 -0.73438,-1.26562 -0.53906,-0.42969 -1.40624,-0.42969 -0.99218,0 -1.78125,0.65625 -0.78126,0.65625 -1.03127,1.625 -0.15623,0.63281 -0.15623,2.3125 v 3.11719 h -1.09376 z"
       style="font-weight:400;font-size:16px;font-family:'Century Gothic', 'Century Gothic_MSFontService', sans-serif;fill:#ffffff;stroke-width:1"
       id="path1870" />
    <path
       d="m 220.2262,54.386909 h 166.00002 v 38 H 220.2262 Z"
       style="fill:#8bc7e4;stroke-width:1"
       id="rect1612" />
    <path
       d="m 275.04213,72.886899 h 1.08593 v 1.46875 q 0.57031,-0.8125 1.17187,-1.1875 0.82815,-0.5 1.7422,-0.5 0.6172,0 1.17189,0.24219 0.55468,0.24219 0.90626,0.64844 0.35155,0.39843 0.60936,1.14844 0.54686,-1 1.36718,-1.51563 0.82031,-0.52344 1.76562,-0.52344 0.88283,0 1.55469,0.44532 0.67969,0.44531 1.00782,1.24218 0.32811,0.79688 0.32811,2.39063 v 4.64062 h -1.11717 v -4.64062 q 0,-1.36719 -0.19532,-1.875 -0.19532,-0.51563 -0.67188,-0.82813 -0.46874,-0.3125 -1.12498,-0.3125 -0.79688,0 -1.46095,0.46875 -0.65625,0.46875 -0.96094,1.25 -0.3047,0.78125 -0.3047,2.60938 v 3.32812 h -1.08593 v -4.35156 q 0,-1.53906 -0.19531,-2.08594 -0.18749,-0.55468 -0.66405,-0.88281 -0.47657,-0.33594 -1.13282,-0.33594 -0.75782,0 -1.42187,0.46094 -0.65625,0.45313 -0.97658,1.22656 -0.3125,0.77344 -0.3125,2.36719 v 3.60156 h -1.08593 z"
       style="font-weight:400;font-size:16px;font-family:'Century Gothic', 'Century Gothic_MSFontService', sans-serif;fill:#ffffff;stroke-width:1"
       id="path1874" />
    <path
       d="m 298.51869,72.886899 v 8.5 h -1.07812 v -1.46093 q -0.68749,0.83593 -1.54689,1.25781 -0.85156,0.42187 -1.86716,0.42187 -1.8047,0 -3.08594,-1.30468 -1.27344,-1.3125 -1.27344,-3.1875 0,-1.83594 1.28905,-3.14063 1.28907,-1.30469 3.10158,-1.30469 1.04687,0 1.8906,0.44532 0.85156,0.44531 1.4922,1.33593 v -1.5625 z m -4.37499,0.83594 q -0.91405,0 -1.68751,0.45312 -0.77343,0.44532 -1.23436,1.25782 -0.45313,0.8125 -0.45313,1.71875 0,0.89843 0.46093,1.71875 0.46093,0.82031 1.23439,1.28125 0.78124,0.45312 1.67185,0.45312 0.89845,0 1.70315,-0.45312 0.80468,-0.45313 1.23436,-1.22656 0.43752,-0.77344 0.43752,-1.74219 0,-1.47656 -0.97658,-2.46875 -0.96875,-0.99219 -2.39062,-0.99219 z"
       style="font-weight:400;font-size:16px;font-family:'Century Gothic', 'Century Gothic_MSFontService', sans-serif;fill:#ffffff;stroke-width:1"
       id="path1876" />
    <path
       d="m 309.23744,74.652529 -0.86717,0.53906 q -1.12501,-1.49219 -3.07033,-1.49219 -1.55467,0 -2.58593,1 -1.02344,1 -1.02344,2.42969 0,0.92969 0.46876,1.75 0.47654,0.82031 1.29686,1.27344 0.82814,0.45312 1.85158,0.45312 1.875,0 3.0625,-1.49219 l 0.86717,0.57032 q -0.60936,0.91406 -1.64063,1.42187 -1.02343,0.5 -2.33592,0.5 -2.01563,0 -3.34376,-1.28125 -1.32812,-1.28125 -1.32812,-3.11718 0,-1.23438 0.61719,-2.28907 0.625,-1.0625 1.71093,-1.65625 1.08595,-0.59375 2.42969,-0.59375 0.84376,0 1.62499,0.25781 0.78907,0.25782 1.33596,0.67188 0.54687,0.41406 0.92967,1.05469 z"
       style="font-weight:400;font-size:16px;font-family:'Century Gothic', 'Century Gothic_MSFontService', sans-serif;fill:#ffffff;stroke-width:1"
       id="path1878" />
    <path
       d="m 316.98743,69.605649 q 2.6094,0 4.36721,1.74219 1.75782,1.74219 1.75782,4.28906 0,2.52344 -1.75782,4.28125 -1.75,1.75781 -4.27344,1.75781 -2.55469,0 -4.3125,-1.74999 -1.75781,-1.75001 -1.75781,-4.23438 0,-1.65625 0.79687,-3.07031 0.80468,-1.41407 2.1875,-2.21094 1.38282,-0.80469 2.99217,-0.80469 z m 0.0547,1.125 q -1.27344,0 -2.41406,0.66406 -1.14065,0.66407 -1.78126,1.78907 -0.64063,1.125 -0.64063,2.50781 0,2.04687 1.41406,3.46094 1.42187,1.40625 3.42189,1.40625 1.33593,0 2.46874,-0.64844 1.14062,-0.64844 1.77345,-1.77344 0.64061,-1.125 0.64061,-2.5 0,-1.36719 -0.64061,-2.46875 -0.63283,-1.10937 -1.78906,-1.77344 -1.15625,-0.66406 -2.45313,-0.66406 z"
       style="font-weight:400;font-size:16px;font-family:'Century Gothic', 'Century Gothic_MSFontService', sans-serif;fill:#ffffff;stroke-width:1"
       id="path1880" />
    <path
       d="m 324.22963,79.246279 0.97655,-0.58594 q 1.03127,1.89844 2.38284,1.89844 0.57811,0 1.08593,-0.26563 0.50781,-0.27343 0.77343,-0.72656 0.26564,-0.45313 0.26564,-0.96094 0,-0.57812 -0.39063,-1.13281 -0.53906,-0.76563 -1.96876,-1.84375 -1.43749,-1.08594 -1.78906,-1.57031 -0.60937,-0.8125 -0.60937,-1.75781 0,-0.75001 0.35936,-1.36719 0.35938,-0.61719 1.00783,-0.96875 0.65624,-0.35938 1.42187,-0.35938 0.81251,0 1.51564,0.40625 0.71093,0.39844 1.49997,1.47656 l -0.9375,0.71094 q -0.64844,-0.85937 -1.10937,-1.13281 -0.45312,-0.27344 -0.99219,-0.27344 -0.69529,0 -1.14061,0.42188 -0.43752,0.42187 -0.43752,1.03906 0,0.375 0.15626,0.72656 0.15627,0.35157 0.57031,0.76563 0.22657,0.21875 1.48439,1.14844 1.49218,1.10156 2.04687,1.96093 0.55468,0.85938 0.55468,1.72657 0,1.25 -0.95311,2.17187 -0.94531,0.92187 -2.30471,0.92187 -1.04685,0 -1.89844,-0.55468 -0.85156,-0.5625 -1.5703,-1.875 z"
       style="font-weight:400;font-size:16px;font-family:'Century Gothic', 'Century Gothic_MSFontService', sans-serif;fill:#ffffff;stroke-width:1"
       id="path1882" />
  </g>
</svg>
